<svg width="16" height="17" viewBox="0 0 16 17" fill="none" xmlns="http://www.w3.org/2000/svg">
<g clip-path="url(#clip0_70_1497)">
<path d="M13.6565 2.84352C12.2089 1.39589 10.209 0.5 8 0.5C3.58201 0.5 0 4.08201 0 8.5C0 12.918 3.58201 16.5 8 16.5C12.418 16.5 16 12.918 16 8.5C16 6.291 15.1041 4.29113 13.6565 2.84352ZM12.0331 3.99456L13.4749 5.43631L8.06353 10.8477L8.06284 10.8469L8.06215 10.8477L4.27344 7.05895L4.43156 6.90084L5.55223 5.78017L5.71519 5.61723L8.06284 7.96488L12.0331 3.99456Z" fill="#5AC561"/>
</g>
<defs>
<clipPath id="clip0_70_1497">
<rect width="16" height="16" fill="white" transform="translate(0 0.5)"/>
</clipPath>
</defs>
</svg>
