<svg width="16" height="17" viewBox="0 0 16 17" fill="none" xmlns="http://www.w3.org/2000/svg">
<path d="M12.4001 2.09961C11.7374 2.09961 11.2001 2.63687 11.2001 3.29961V13.6996C11.2001 14.3624 11.7374 14.8996 12.4001 14.8996H13.2001C13.8628 14.8996 14.4001 14.3624 14.4001 13.6996V3.29961C14.4001 2.63687 13.8628 2.09961 13.2001 2.09961H12.4001Z" fill="#5AC561"/>
<path d="M7.6001 5.29961C6.93736 5.29961 6.4001 5.83687 6.4001 6.49961V13.6996C6.4001 14.3624 6.93736 14.8996 7.6001 14.8996H8.4001C9.06284 14.8996 9.6001 14.3624 9.6001 13.6996V6.49961C9.6001 5.83687 9.06284 5.29961 8.4001 5.29961H7.6001Z" fill="#5AC561"/>
<path d="M2.8001 8.49961C2.13736 8.49961 1.6001 9.03687 1.6001 9.69961V13.6996C1.6001 14.3624 2.13736 14.8996 2.8001 14.8996H3.6001C4.26284 14.8996 4.8001 14.3624 4.8001 13.6996V9.69961C4.8001 9.03687 4.26284 8.49961 3.6001 8.49961H2.8001Z" fill="#5AC561"/>
</svg>
