<svg width="16" height="17" viewBox="0 0 16 17" fill="none" xmlns="http://www.w3.org/2000/svg">
<g opacity="0.6">
<path fill-rule="evenodd" clip-rule="evenodd" d="M8 2C4.41015 2 1.5 4.91015 1.5 8.5C1.5 12.0899 4.41015 15 8 15C11.5899 15 14.5 12.0899 14.5 8.5C14.5 4.91015 11.5899 2 8 2ZM6.85355 6.64645C6.65829 6.45118 6.34171 6.45118 6.14645 6.64645C5.95118 6.84171 5.95118 7.15829 6.14645 7.35355L7.29289 8.5L6.14645 9.64645C5.95118 9.84171 5.95118 10.1583 6.14645 10.3536C6.34171 10.5488 6.65829 10.5488 6.85355 10.3536L8 9.20711L9.14645 10.3536C9.34171 10.5488 9.65829 10.5488 9.85355 10.3536C10.0488 10.1583 10.0488 9.84171 9.85355 9.64645L8.70711 8.5L9.85355 7.35355C10.0488 7.15829 10.0488 6.84171 9.85355 6.64645C9.65829 6.45118 9.34171 6.45118 9.14645 6.64645L8 7.79289L6.85355 6.64645Z" fill="#E1E2C2"/>
</g>
</svg>
