<svg width="16" height="17" viewBox="0 0 16 17" fill="none" xmlns="http://www.w3.org/2000/svg">
<path d="M4.9952 12.8334C4.71215 12.8334 4.44864 12.6757 4.34506 12.4123C4.12233 11.8458 4 11.2289 4 10.5834C4 9.41732 4.39916 8.34449 5.06829 7.49407C5.1689 7.36621 5.31637 7.28809 5.4681 7.22935C5.7833 7.10732 6.06169 6.88649 6.27607 6.61315C6.79151 5.95593 7.44113 5.40897 8.18369 5.01352C8.66512 4.75713 9.08286 4.37623 9.28543 3.8698C9.42717 3.51544 9.5 3.13729 9.5 2.75563V2.33337C9.5 2.05723 9.72386 1.83337 10 1.83337C10.8284 1.83337 11.5 2.50495 11.5 3.33337C11.5 4.10113 11.327 4.82846 11.0178 5.47851C10.8407 5.85074 11.0891 6.33337 11.5013 6.33337H13.5852C14.2696 6.33337 14.8822 6.79604 14.9547 7.47661C14.9846 7.7581 15 8.04394 15 8.33337C15 10.2318 14.3387 11.9758 13.234 13.3475C12.9756 13.6684 12.5761 13.8334 12.1642 13.8334H9.48683C9.16439 13.8334 8.84405 13.7814 8.53815 13.6794L6.46185 12.9873C6.15595 12.8854 5.83561 12.8334 5.51317 12.8334H4.9952Z" fill="#E1E2C2"/>
<path d="M1.55433 7.65145C1.19654 8.55933 1 9.5484 1 10.5834C1 11.3968 1.12139 12.1818 1.34704 12.9213C1.51994 13.488 2.06945 13.8334 2.66192 13.8334H3.26712C3.56413 13.8334 3.74758 13.5012 3.61615 13.2348C3.22165 12.4353 3 11.5352 3 10.5834C3 9.44459 3.31726 8.3799 3.8682 7.47288C4.03154 7.20398 3.84936 6.83337 3.53474 6.83337H2.8329C2.27822 6.83337 1.7577 7.1354 1.55433 7.65145Z" fill="#E1E2C2"/>
</svg>
