<svg width="16" height="17" viewBox="0 0 16 17" fill="none" xmlns="http://www.w3.org/2000/svg">
<path d="M4.9952 12.8333C4.71215 12.8333 4.44864 12.6756 4.34506 12.4122C4.12233 11.8457 4 11.2288 4 10.5833C4 9.4172 4.39916 8.34437 5.06829 7.49395C5.1689 7.36609 5.31637 7.28797 5.4681 7.22923C5.7833 7.10719 6.06169 6.88637 6.27607 6.61303C6.79151 5.95581 7.44113 5.40885 8.18369 5.01339C8.66512 4.75701 9.08286 4.37611 9.28543 3.86968C9.42717 3.51532 9.5 3.13716 9.5 2.7555V2.33325C9.5 2.05711 9.72386 1.83325 10 1.83325C10.8284 1.83325 11.5 2.50482 11.5 3.33325C11.5 4.101 11.327 4.82834 11.0178 5.47839C10.8407 5.85061 11.0891 6.33325 11.5013 6.33325H13.5852C14.2696 6.33325 14.8822 6.79591 14.9547 7.47649C14.9846 7.75797 15 8.04382 15 8.33325C15 10.2317 14.3387 11.9756 13.234 13.3474C12.9756 13.6683 12.5761 13.8333 12.1642 13.8333H9.48683C9.16439 13.8333 8.84405 13.7813 8.53815 13.6793L6.46185 12.9872C6.15595 12.8852 5.83561 12.8333 5.51317 12.8333H4.9952Z" fill="#E1E2C2"/>
<path d="M1.55433 7.65133C1.19654 8.55921 1 9.54828 1 10.5833C1 11.3966 1.12139 12.1817 1.34704 12.9212C1.51994 13.4879 2.06945 13.8333 2.66192 13.8333H3.26712C3.56413 13.8333 3.74758 13.5011 3.61615 13.2347C3.22165 12.4352 3 11.5351 3 10.5833C3 9.44447 3.31726 8.37978 3.8682 7.47275C4.03154 7.20386 3.84936 6.83325 3.53474 6.83325H2.8329C2.27822 6.83325 1.7577 7.13527 1.55433 7.65133Z" fill="#E1E2C2"/>
</svg>
