<svg width="24" height="24" viewBox="0 0 24 24" fill="none" xmlns="http://www.w3.org/2000/svg">
<path d="M8.12001 9.29007L12 13.1701L15.88 9.29007C15.9726 9.19749 16.0825 9.12405 16.2035 9.07394C16.3244 9.02384 16.4541 8.99805 16.585 8.99805C16.7159 8.99805 16.8456 9.02384 16.9666 9.07394C17.0875 9.12405 17.1974 9.19749 17.29 9.29007C17.3826 9.38265 17.456 9.49256 17.5061 9.61352C17.5562 9.73449 17.582 9.86414 17.582 9.99507C17.582 10.126 17.5562 10.2556 17.5061 10.3766C17.456 10.4976 17.3826 10.6075 17.29 10.7001L12.7 15.2901C12.31 15.6801 11.68 15.6801 11.29 15.2901L6.70001 10.7001C6.60731 10.6076 6.53376 10.4977 6.48358 10.3767C6.4334 10.2557 6.40757 10.126 6.40757 9.99507C6.40757 9.8641 6.4334 9.73442 6.48358 9.61344C6.53376 9.49247 6.60731 9.38258 6.70001 9.29007C7.09001 8.91007 7.73001 8.90007 8.12001 9.29007Z" fill="#E1E2C2"/>
</svg>
