<svg width="18" height="19" viewBox="0 0 18 19" fill="none" xmlns="http://www.w3.org/2000/svg">
<path d="M8.24415 11.3936C8.99804 10.8917 9.5704 10.1605 9.87659 9.30819C10.1828 8.45584 10.2066 7.52758 9.94438 6.66068C9.68221 5.79378 9.14801 5.03426 8.42079 4.49444C7.69357 3.95462 6.81193 3.66316 5.90625 3.66316C5.00058 3.66316 4.11894 3.95462 3.39172 4.49444C2.6645 5.03426 2.1303 5.79378 1.86813 6.66068C1.60596 7.52758 1.62972 8.45584 1.93592 9.30819C2.24211 10.1605 2.81447 10.8917 3.56836 11.3936C2.20465 11.8962 1.04 12.8263 0.248208 14.0451C0.206594 14.107 0.177688 14.1765 0.163172 14.2496C0.148656 14.3227 0.148819 14.398 0.163651 14.471C0.178482 14.5441 0.207687 14.6135 0.249568 14.6751C0.291448 14.7368 0.345169 14.7895 0.407608 14.8303C0.470046 14.871 0.539957 14.8989 0.613276 14.9124C0.686595 14.9258 0.76186 14.9246 0.834695 14.9087C0.907531 14.8928 0.976485 14.8626 1.03755 14.8199C1.09861 14.7771 1.15057 14.7227 1.1904 14.6596C1.70114 13.8741 2.40002 13.2286 3.22358 12.7817C4.04713 12.3349 4.96927 12.1008 5.90625 12.1008C6.84324 12.1008 7.76538 12.3349 8.58893 12.7817C9.41249 13.2286 10.1114 13.8741 10.6221 14.6596C10.7046 14.7823 10.8321 14.8675 10.9769 14.8969C11.1217 14.9263 11.2723 14.8975 11.3961 14.8168C11.5199 14.736 11.6069 14.6098 11.6384 14.4654C11.6699 14.321 11.6433 14.17 11.5643 14.0451C10.7725 12.8263 9.60786 11.8962 8.24415 11.3936ZM2.8125 7.88362C2.8125 7.27174 2.99395 6.67359 3.3339 6.16483C3.67384 5.65606 4.15702 5.25953 4.72233 5.02537C5.28764 4.79121 5.90969 4.72995 6.50982 4.84932C7.10994 4.96869 7.6612 5.26334 8.09387 5.69601C8.52654 6.12868 8.82119 6.67993 8.94056 7.28006C9.05993 7.88019 8.99866 8.50224 8.76451 9.06755C8.53035 9.63286 8.13381 10.116 7.62505 10.456C7.11629 10.7959 6.51814 10.9774 5.90625 10.9774C5.08603 10.9764 4.29966 10.6502 3.71967 10.0702C3.13968 9.49022 2.81343 8.70385 2.8125 7.88362ZM17.588 14.8235C17.463 14.9049 17.3108 14.9335 17.1649 14.9027C17.0189 14.872 16.8911 14.7846 16.8096 14.6596C16.2995 13.8736 15.6007 13.2278 14.777 12.7812C13.9532 12.3345 13.0308 12.1011 12.0938 12.1024C11.9446 12.1024 11.8015 12.0431 11.696 11.9376C11.5905 11.8321 11.5313 11.6891 11.5313 11.5399C11.5313 11.3907 11.5905 11.2476 11.696 11.1421C11.8015 11.0366 11.9446 10.9774 12.0938 10.9774C12.5494 10.9769 12.9992 10.8759 13.4113 10.6814C13.8233 10.487 14.1873 10.2039 14.4772 9.8525C14.7672 9.50106 14.9759 9.08993 15.0886 8.64847C15.2012 8.20701 15.2149 7.74612 15.1288 7.29873C15.0427 6.85134 14.8588 6.4285 14.5903 6.06042C14.3218 5.69234 13.9753 5.3881 13.5756 5.16944C13.1759 4.95079 12.7328 4.82312 12.2781 4.79555C11.8233 4.76797 11.368 4.84119 10.9448 5.00995C10.8758 5.03978 10.8016 5.05548 10.7264 5.05611C10.6512 5.05675 10.5767 5.04231 10.5072 5.01365C10.4377 4.98499 10.3747 4.9427 10.3218 4.88926C10.2689 4.83582 10.2273 4.77233 10.1994 4.70254C10.1715 4.63274 10.1578 4.55806 10.1592 4.4829C10.1607 4.40774 10.1772 4.33364 10.2077 4.26496C10.2383 4.19628 10.2823 4.13442 10.3372 4.08304C10.392 4.03166 10.4567 3.9918 10.5272 3.96581C11.4957 3.57955 12.573 3.56565 13.5511 3.92679C14.5293 4.28794 15.3391 4.99853 15.8243 5.92149C16.3094 6.84446 16.4356 7.91439 16.1784 8.92489C15.9213 9.93539 15.299 10.8149 14.4316 11.3936C15.7954 11.8962 16.96 12.8263 17.7518 14.0451C17.8333 14.1701 17.8618 14.3222 17.8311 14.4682C17.8003 14.6142 17.7129 14.742 17.588 14.8235Z" fill="white"/>
</svg>
