<svg width="18" height="19" viewBox="0 0 18 19" fill="none" xmlns="http://www.w3.org/2000/svg">
<path d="M6.46875 9.85237H2.8125C2.65683 9.85184 2.50296 9.81901 2.36063 9.75595C2.2183 9.6929 2.0906 9.60099 1.98562 9.48604C1.87913 9.36931 1.79807 9.23171 1.7476 9.08198C1.69712 8.93225 1.67833 8.77366 1.69242 8.61628C1.78794 7.56232 2.11146 6.54173 2.64056 5.62521C3.16966 4.70869 3.89169 3.91816 4.75664 3.30839C4.88441 3.21801 5.02963 3.15529 5.18302 3.12423C5.33641 3.09317 5.49459 3.09446 5.64746 3.12801C5.80032 3.16156 5.9445 3.22664 6.07079 3.31908C6.19707 3.41152 6.30268 3.52929 6.38086 3.66487L8.20898 6.82893C8.24592 6.89292 8.26989 6.96356 8.27952 7.03681C8.28916 7.11006 8.28427 7.18449 8.26514 7.25586C8.24601 7.32722 8.21301 7.39412 8.16803 7.45273C8.12304 7.51134 8.06696 7.56051 8.00297 7.59745C7.93898 7.63438 7.86834 7.65835 7.79509 7.66799C7.72184 7.67762 7.6474 7.67274 7.57604 7.6536C7.50468 7.63447 7.43778 7.60148 7.37917 7.55649C7.32056 7.51151 7.27139 7.45542 7.23445 7.39143L5.40633 4.22737C4.67431 4.74302 4.06318 5.41168 3.61529 6.18701C3.16741 6.96234 2.89348 7.8258 2.8125 8.71753C2.81236 8.71966 2.81273 8.72179 2.81359 8.72375C2.81445 8.72571 2.81576 8.72743 2.81742 8.72878L6.46875 8.72737C6.61793 8.72737 6.76101 8.78663 6.8665 8.89212C6.97198 8.99761 7.03125 9.14069 7.03125 9.28987C7.03125 9.43905 6.97198 9.58213 6.8665 9.68762C6.76101 9.79311 6.61793 9.85237 6.46875 9.85237ZM16.3076 8.61628C16.2121 7.56232 15.8885 6.54173 15.3594 5.62521C14.8303 4.70869 14.1083 3.91816 13.2434 3.30839C13.1156 3.21801 12.9704 3.15529 12.817 3.12423C12.6636 3.09317 12.5054 3.09446 12.3525 3.12801C12.1997 3.16156 12.0555 3.22664 11.9292 3.31908C11.8029 3.41152 11.6973 3.52929 11.6191 3.66487L9.79453 6.82893C9.7576 6.89292 9.73363 6.96356 9.72399 7.03681C9.71436 7.11006 9.71924 7.18449 9.73837 7.25586C9.77701 7.39998 9.87131 7.52286 10.0005 7.59745C10.1298 7.67204 10.2833 7.69224 10.4275 7.6536C10.4988 7.63447 10.5657 7.60148 10.6243 7.55649C10.683 7.51151 10.7321 7.45542 10.7691 7.39143L12.5972 4.22737C13.3284 4.74351 13.9388 5.41236 14.386 6.18765C14.8333 6.96293 15.1067 7.82614 15.1875 8.71753C15.1875 8.72245 15.1875 8.72596 15.1875 8.72737H11.5312C11.3821 8.72737 11.239 8.78663 11.1335 8.89212C11.028 8.99761 10.9687 9.14069 10.9687 9.28987C10.9687 9.43905 11.028 9.58213 11.1335 9.68762C11.239 9.79311 11.3821 9.85237 11.5312 9.85237H15.1875C15.3432 9.85184 15.497 9.81901 15.6394 9.75595C15.7817 9.6929 15.9094 9.60099 16.0144 9.48604C16.1209 9.36931 16.2019 9.23171 16.2524 9.08198C16.3029 8.93225 16.3217 8.77366 16.3076 8.61628ZM10.7529 11.201C10.716 11.137 10.6668 11.0809 10.6082 11.0359C10.5496 10.9909 10.4827 10.9579 10.4113 10.9388C10.3399 10.9197 10.2655 10.9148 10.1923 10.9244C10.119 10.934 10.0484 10.958 9.98437 10.9949C9.92038 11.0319 9.8643 11.0811 9.81931 11.1397C9.77433 11.1983 9.74133 11.2652 9.7222 11.3365C9.70307 11.4079 9.69818 11.4823 9.70782 11.5556C9.71745 11.6288 9.74142 11.6995 9.77836 11.7635L11.5952 14.9085C10.7815 15.2833 9.89624 15.4774 9.00035 15.4774C8.10446 15.4774 7.2192 15.2833 6.40547 14.9085L8.22164 11.7635C8.25857 11.6995 8.28254 11.6288 8.29218 11.5556C8.30181 11.4823 8.29693 11.4079 8.2778 11.3365C8.25867 11.2652 8.22567 11.1983 8.18068 11.1397C8.1357 11.0811 8.07961 11.0319 8.01562 10.9949C7.95163 10.958 7.881 10.934 7.80775 10.9244C7.73449 10.9148 7.66006 10.9197 7.5887 10.9388C7.51733 10.9579 7.45044 10.9909 7.39183 11.0359C7.33322 11.0809 7.28404 11.137 7.24711 11.201L5.43164 14.346C5.35347 14.4813 5.30433 14.6314 5.28735 14.7867C5.27037 14.942 5.28592 15.0991 5.33302 15.2481C5.38012 15.397 5.45772 15.5346 5.56089 15.6519C5.66407 15.7692 5.79054 15.8637 5.93226 15.9295C6.89421 16.3728 7.94081 16.6024 9 16.6024C10.0592 16.6024 11.1058 16.3728 12.0677 15.9295C12.2095 15.8637 12.3359 15.7692 12.4391 15.6519C12.5423 15.5346 12.6199 15.397 12.667 15.2481C12.7141 15.0991 12.7296 14.942 12.7126 14.7867C12.6957 14.6314 12.6465 14.4813 12.5684 14.346L10.7529 11.201ZM9 10.1336C9.16688 10.1336 9.33001 10.0841 9.46876 9.99142C9.60751 9.89871 9.71566 9.76693 9.77952 9.61276C9.84338 9.45858 9.86009 9.28893 9.82754 9.12526C9.79498 8.96159 9.71462 8.81125 9.59662 8.69325C9.47862 8.57525 9.32828 8.49489 9.16461 8.46233C9.00093 8.42978 8.83128 8.44649 8.67711 8.51035C8.52293 8.57421 8.39116 8.68235 8.29845 8.82111C8.20573 8.95986 8.15625 9.12299 8.15625 9.28987C8.15625 9.51365 8.24514 9.72826 8.40338 9.88649C8.56161 10.0447 8.77622 10.1336 9 10.1336Z" fill="white"/>
</svg>
