<svg width="18" height="19" viewBox="0 0 18 19" fill="none" xmlns="http://www.w3.org/2000/svg">
<g clip-path="url(#clip0_64_1249)">
<path d="M15.1727 8.5987C15.1514 8.50855 15.1082 8.42505 15.0469 8.35562C14.9855 8.2862 14.908 8.23299 14.8212 8.20074L10.7705 6.68128L11.8012 1.52527C11.8246 1.40547 11.8083 1.28133 11.7549 1.17158C11.7015 1.06183 11.6139 0.972433 11.5052 0.916868C11.3965 0.861303 11.2727 0.842591 11.1525 0.863554C11.0323 0.884517 10.9221 0.944019 10.8387 1.03308L2.96366 9.47058C2.8997 9.53798 2.85344 9.62016 2.82899 9.7098C2.80455 9.79944 2.80269 9.89374 2.82358 9.98428C2.84447 10.0748 2.88746 10.1588 2.94872 10.2286C3.00997 10.2985 3.08758 10.3521 3.1746 10.3846L7.22671 11.9041L6.19874 17.0545C6.1754 17.1743 6.19166 17.2984 6.24506 17.4082C6.29846 17.5179 6.38611 17.6073 6.49478 17.6629C6.60345 17.7184 6.72724 17.7372 6.84747 17.7162C6.96771 17.6952 7.07787 17.6357 7.16132 17.5467L15.0363 9.10917C15.0991 9.04176 15.1444 8.95996 15.1682 8.87095C15.192 8.78194 15.1935 8.68846 15.1727 8.5987ZM7.69007 15.3368L8.42624 11.6538C8.45259 11.5232 8.43171 11.3874 8.36733 11.2708C8.30295 11.1541 8.19924 11.0641 8.07468 11.0168L4.35937 9.62105L10.3092 3.24652L9.57374 6.92949C9.5474 7.0601 9.56827 7.19584 9.63266 7.3125C9.69704 7.42916 9.80075 7.51918 9.92531 7.56652L13.6378 8.9587L7.69007 15.3368Z" fill="white"/>
</g>
<defs>
<clipPath id="clip0_64_1249">
<rect width="18" height="18" fill="white" transform="translate(0 0.289871)"/>
</clipPath>
</defs>
</svg>
