<svg width="18" height="19" viewBox="0 0 18 19" fill="none" xmlns="http://www.w3.org/2000/svg">
<path d="M9.28125 1.97729C7.41707 1.97934 5.62984 2.72079 4.31167 4.03896C2.99349 5.35713 2.25205 7.14437 2.25 9.00854V14.938C2.25037 15.2301 2.36657 15.5101 2.57312 15.7167C2.77967 15.9232 3.0597 16.0394 3.3518 16.0398H9.28125C11.1461 16.0398 12.9345 15.299 14.2531 13.9804C15.5717 12.6618 16.3125 10.8733 16.3125 9.00854C16.3125 7.14374 15.5717 5.35532 14.2531 4.0367C12.9345 2.71809 11.1461 1.97729 9.28125 1.97729ZM9.28125 14.9148H3.375V9.00854C3.375 7.8404 3.7214 6.69849 4.37038 5.72721C5.01937 4.75593 5.9418 3.99891 7.02103 3.55188C8.10025 3.10485 9.2878 2.98789 10.4335 3.21578C11.5792 3.44368 12.6316 4.00619 13.4576 4.8322C14.2836 5.6582 14.8461 6.71059 15.074 7.85629C15.3019 9.00199 15.1849 10.1895 14.7379 11.2688C14.2909 12.348 13.5339 13.2704 12.5626 13.9194C11.5913 14.5684 10.4494 14.9148 9.28125 14.9148ZM10.125 9.28979C10.125 9.45667 10.0755 9.6198 9.9828 9.75856C9.89009 9.89731 9.75831 10.0055 9.60414 10.0693C9.44996 10.1332 9.28031 10.1499 9.11664 10.1173C8.95297 10.0848 8.80263 10.0044 8.68463 9.88642C8.56663 9.76842 8.48627 9.61807 8.45371 9.4544C8.42116 9.29073 8.43787 9.12108 8.50173 8.96691C8.56559 8.81273 8.67373 8.68095 8.81249 8.58824C8.95124 8.49553 9.11437 8.44604 9.28125 8.44604C9.50503 8.44604 9.71964 8.53494 9.87787 8.69317C10.0361 8.85141 10.125 9.06602 10.125 9.28979ZM7.03125 9.28979C7.03125 9.45667 6.98177 9.6198 6.88905 9.75856C6.79634 9.89731 6.66456 10.0055 6.51039 10.0693C6.35621 10.1332 6.18656 10.1499 6.02289 10.1173C5.85922 10.0848 5.70888 10.0044 5.59088 9.88642C5.47288 9.76842 5.39252 9.61807 5.35996 9.4544C5.32741 9.29073 5.34412 9.12108 5.40798 8.96691C5.47184 8.81273 5.57998 8.68095 5.71874 8.58824C5.85749 8.49553 6.02062 8.44604 6.1875 8.44604C6.41128 8.44604 6.62589 8.53494 6.78412 8.69317C6.94236 8.85141 7.03125 9.06602 7.03125 9.28979ZM13.2188 9.28979C13.2188 9.45667 13.1693 9.6198 13.0766 9.75856C12.9838 9.89731 12.8521 10.0055 12.6979 10.0693C12.5437 10.1332 12.3741 10.1499 12.2104 10.1173C12.0467 10.0848 11.8964 10.0044 11.7784 9.88642C11.6604 9.76842 11.58 9.61807 11.5475 9.4544C11.5149 9.29073 11.5316 9.12108 11.5955 8.96691C11.6593 8.81273 11.7675 8.68095 11.9062 8.58824C12.045 8.49553 12.2081 8.44604 12.375 8.44604C12.5988 8.44604 12.8134 8.53494 12.9716 8.69317C13.1299 8.85141 13.2188 9.06602 13.2188 9.28979Z" fill="white"/>
</svg>
