<svg width="18" height="19" viewBox="0 0 18 19" fill="none" xmlns="http://www.w3.org/2000/svg">
<path d="M14.5589 5.96198C13.8298 5.23119 12.9632 4.65197 12.0091 4.25771C11.055 3.86346 10.0323 3.66197 9 3.66487H8.97187C4.64555 3.67964 1.125 7.25081 1.125 11.6193V13.2274C1.125 13.5257 1.24353 13.8119 1.4545 14.0229C1.66548 14.2338 1.95163 14.3524 2.25 14.3524H15.75C16.0484 14.3524 16.3345 14.2338 16.5455 14.0229C16.7565 13.8119 16.875 13.5257 16.875 13.2274V11.5399C16.8779 10.503 16.6746 9.47596 16.277 8.51838C15.8794 7.5608 15.2954 6.69182 14.5589 5.96198ZM15.75 13.2274H8.41711L12.2674 7.93284C12.3553 7.81219 12.3916 7.66158 12.3684 7.51416C12.3451 7.36674 12.2643 7.23458 12.1437 7.14675C12.023 7.05891 11.8724 7.02261 11.725 7.04582C11.5776 7.06902 11.4454 7.14984 11.3576 7.2705L7.02562 13.2274H2.25V11.6193C2.25 11.4028 2.26055 11.189 2.28023 10.9774H3.9375C4.08668 10.9774 4.22976 10.9181 4.33525 10.8126C4.44074 10.7071 4.5 10.5641 4.5 10.4149C4.5 10.2657 4.44074 10.1226 4.33525 10.0171C4.22976 9.91163 4.08668 9.85237 3.9375 9.85237H2.47992C3.20555 7.12003 5.57367 5.05425 8.4375 4.81378V6.47737C8.4375 6.62656 8.49676 6.76963 8.60225 6.87512C8.70774 6.98061 8.85082 7.03987 9 7.03987C9.14918 7.03987 9.29226 6.98061 9.39775 6.87512C9.50324 6.76963 9.5625 6.62656 9.5625 6.47737V4.81307C10.958 4.93051 12.2825 5.47844 13.3531 6.38116C14.4237 7.28387 15.1876 8.49681 15.5391 9.85237H14.0625C13.9133 9.85237 13.7702 9.91163 13.6648 10.0171C13.5593 10.1226 13.5 10.2657 13.5 10.4149C13.5 10.5641 13.5593 10.7071 13.6648 10.8126C13.7702 10.9181 13.9133 10.9774 14.0625 10.9774H15.7268C15.7416 11.1637 15.75 11.3507 15.75 11.5399V13.2274Z" fill="#5AC561"/>
</svg>
