<svg width="176" height="177" viewBox="0 0 176 177" fill="none" xmlns="http://www.w3.org/2000/svg">
<g clip-path="url(#clip0_113_5264)">
<path d="M5.50889 67.2237C8.09946 65.1133 11.8487 63.3108 13.9692 63.0909C16.0898 62.8656 17.8879 63.014 24.7195 59.0845C30.8024 55.5838 41.3451 51.462 44.2635 50.4288C44.8975 49.4451 45.7228 48.0327 46.9306 46.0267C49.2698 42.1522 51.8877 38.602 52.8004 37.8161C53.7186 37.0302 53.9481 34.9583 56.7464 29.3307C59.5446 23.7031 65.0045 21.0762 67.3436 21.6752C69.6828 22.2742 73.7654 21.6312 73.9949 21.6312C74.2245 21.6312 75.1864 20.7574 75.1864 19.9715C75.1864 19.1856 73.4867 17.1577 72.6614 16.2839C71.8361 15.4101 72.2023 14.5308 71.929 13.8383C71.6558 13.1458 71.9728 11.3927 71.8361 10.9805C71.6995 10.5683 71.8361 10.0133 71.8799 9.64505C71.9236 9.27684 70.7813 8.90863 70.7321 7.93589C70.6884 6.96864 71.6011 7.10603 72.3389 5.81454C73.0713 4.52304 72.9838 2.67648 75.0935 1.43445C77.2031 0.186922 82.2039 -1.14854 87.4342 1.7587C92.6645 4.66593 91.883 11.2168 90.5986 14.9045C89.3143 18.5976 89.4509 22.0104 89.5438 22.4226C89.5438 22.4226 93.3969 22.4226 97.3428 22.8842C101.289 23.3459 105.415 25.3738 108.17 27.3138C110.924 29.2538 120.833 32.205 124.134 34.5077C127.435 36.8159 131.108 37.3655 134.687 37.7392C138.267 38.1074 138.174 39.0307 143.312 41.2454C148.449 43.4602 158.265 43.8284 158.817 43.735C159.369 43.6416 161.571 48.258 161.571 48.258C161.571 48.258 157.259 52.039 153.679 51.396C150.1 50.7475 145.514 51.5829 138.448 51.0278C131.381 50.4728 128.632 47.2468 122.576 45.3068C116.521 43.3668 102.573 39.3109 102.573 39.3109C102.573 39.3109 100.464 41.8005 98.7201 43.7405C96.9766 45.6805 96.0585 52.4127 95.8781 56.9357C95.6923 61.4587 96.4301 63.4866 97.5286 69.2077C98.6272 74.9287 94.7741 75.4838 94.7741 75.4838C94.7741 75.4838 95.1403 76.407 96.2443 83.0514C97.3483 89.6957 96.5176 97.2578 96.1514 100.302C95.7852 103.347 98.0806 111.745 97.6216 114.877C97.1625 118.015 94.5938 117.46 94.5938 117.46C94.5938 117.46 94.5828 117.608 94.5719 117.834C96.8837 118.916 100.436 120.609 102.923 122.368C106.874 125.154 128.43 133.678 128.43 133.678C128.43 133.678 129.058 133.205 130.43 133.002C131.802 132.793 141.672 136.552 142.568 138.02C143.47 139.487 142.213 145.422 141.989 146.637C141.765 147.857 143.733 152.374 143.727 157.656C143.722 162.943 139.541 168.669 137.874 168.191C136.207 167.713 134.185 158.029 133.43 155.078C132.676 152.127 126.566 148.813 125.293 148.033C124.019 147.252 123.303 144.768 123.303 144.768C123.303 144.768 106.208 138.794 100.075 137.404C93.9434 136.019 79.9576 129.232 79.9576 129.232C79.9576 129.232 79.2362 129.633 77.9354 126.176L76.4161 126.682C76.4161 126.682 83.0237 140.339 83.8489 145.318C84.6742 150.303 89.5383 165.894 89.5383 165.894C89.5383 165.894 90.2707 165.894 91.1889 166.262C92.107 166.63 94.8616 173.368 97.3374 176.687C99.8131 180.007 96.8783 180.749 94.9545 183.42C93.0252 186.096 91.8338 191.262 86.6035 195.323C81.3731 199.385 73.667 200.121 72.2898 197.445C70.9125 194.768 75.2246 191.449 77.061 188.959C78.8973 186.47 80.362 180.012 80.362 178.072C80.362 176.132 79.1706 175.583 78.3453 173.643C77.5201 171.703 80.7282 169.213 80.7282 169.213C80.7282 169.213 77.5146 159.986 71.1858 148.176C64.8569 136.365 55.6806 124.093 55.1286 120.038C54.5766 115.976 58.7084 99.4121 58.7084 99.4121C58.7084 99.4121 57.0579 86.9149 57.6099 82.1171C58.1619 77.3193 58.7084 73.1701 57.9761 71.2301C57.2437 69.2901 58.3422 68.6471 58.3422 66.3389C58.3422 64.0307 55.7735 52.8689 55.7735 52.8689L51.1389 57.0676C51.1389 57.0676 50.0841 57.7601 48.7834 58.3811C48.0947 58.8812 47.3296 59.4143 46.6355 59.854C44.7554 61.0465 36.2896 63.8109 32.2125 64.6077C28.1354 65.4101 17.4397 69.8726 17.4397 69.8726C17.4397 69.8726 17.5873 70.2189 17.6911 70.8179C17.795 71.4169 16.8276 72.3732 15.7837 73.1975C14.7398 74.0274 12.816 74.9287 12.1383 74.7144C11.4606 74.5 10.0342 73.5768 9.09415 73.2635C8.15411 72.9502 7.44362 71.7961 7.44362 71.7961C7.44362 71.7961 6.93534 72.1314 6.43253 72.3182C5.92972 72.5051 4.70549 73.9065 3.75452 73.5658C2.80355 73.225 3.43753 71.7632 3.54137 71.6807C3.64521 71.5928 2.44284 72.3182 1.63397 72.4721C0.825104 72.626 0.131007 72.67 -0.0110916 72.0325C-0.15319 71.395 2.90193 69.3506 5.4925 67.2402L5.50889 67.2237Z" fill="url(#paint0_linear_113_5264)"/>
<path d="M162.856 54.9188C170.115 54.9188 176 49.0012 176 41.7016C176 34.4019 170.115 28.4844 162.856 28.4844C155.597 28.4844 149.712 34.4019 149.712 41.7016C149.712 49.0012 155.597 54.9188 162.856 54.9188Z" fill="#ED6435"/>
</g>
<defs>
<linearGradient id="paint0_linear_113_5264" x1="80.7778" y1="0.0163574" x2="80.7778" y2="199.024" gradientUnits="userSpaceOnUse">
<stop stop-color="#2A3635"/>
<stop offset="1" stop-color="#2A3635" stop-opacity="0.4"/>
</linearGradient>
<clipPath id="clip0_113_5264">
<rect width="176" height="199" fill="white"/>
</clipPath>
</defs>
</svg>
