<svg width="168" height="61" viewBox="0 0 168 61" fill="none" xmlns="http://www.w3.org/2000/svg">
<path d="M108.354 5.55666C109.888 5.55666 111.132 4.31276 111.132 2.77833C111.132 1.2439 109.888 0 108.354 0C106.82 0 105.576 1.2439 105.576 2.77833C105.576 4.31276 106.82 5.55666 108.354 5.55666Z" fill="white"/>
<path d="M127.905 5.54732C129.429 5.54732 130.665 4.31179 130.665 2.7877C130.665 1.2636 129.429 0.0280762 127.905 0.0280762C126.381 0.0280762 125.146 1.2636 125.146 2.7877C125.146 4.31179 126.381 5.54732 127.905 5.54732Z" fill="white"/>
<path d="M38.1847 5.04215C41.3528 8.45348 41.9546 12.3824 39.9902 16.829C39.2356 18.5378 37.7263 20.5272 35.4625 22.7973C33.7226 24.5372 31.9358 26.3209 30.1023 28.1481C29.9877 28.2645 29.8332 28.333 29.67 28.3399C29.5068 28.3469 29.3471 28.2917 29.223 28.1855C26.5538 25.8843 23.9875 23.3897 21.5241 20.7018C18.9547 17.9079 17.8571 14.8333 18.2313 11.4781C18.5805 8.32251 19.9806 5.68762 22.4315 3.57347C24.8388 1.49674 27.6763 0.701595 30.9442 1.18804C33.7693 1.60588 36.1828 2.89058 38.1847 5.04215ZM31.0752 5.42569C29.2105 4.93925 27.5204 5.17623 26.005 6.13664C24.0779 7.36522 22.9366 9.16755 22.5812 11.5436C22.207 14.0569 23.0988 16.3363 25.2566 18.3819C26.5725 19.6354 27.8291 20.917 29.0265 22.2266C29.0955 22.3032 29.1793 22.3651 29.2727 22.4087C29.3662 22.4522 29.4675 22.4764 29.5705 22.4799C29.6735 22.4834 29.7762 22.4661 29.8724 22.429C29.9686 22.3919 30.0563 22.3358 30.1304 22.2641C31.5211 20.9419 32.8214 19.6385 34.0313 18.3538C37.4987 14.6868 37.8542 11.2412 35.0977 8.01693C33.9627 6.68857 32.6218 5.82482 31.0752 5.42569Z" fill="#5AC561"/>
<path d="M115.23 7.02536C114.887 4.70541 116.277 3.45188 119.402 3.26479C119.545 3.25693 119.688 3.28313 119.819 3.34123C119.95 3.39934 120.066 3.4877 120.156 3.59906C120.247 3.71043 120.309 3.84163 120.339 3.98191C120.369 4.12218 120.365 4.26754 120.328 4.40606C119.642 6.95052 120.309 8.05437 122.33 7.7176C122.674 7.65804 123.028 7.73757 123.316 7.93894C123.603 8.14032 123.8 8.44731 123.864 8.79339C124.375 11.5624 123.443 12.6974 121.067 12.1985C120.944 12.1719 120.817 12.1733 120.695 12.2023C120.572 12.2313 120.458 12.2874 120.36 12.3663C120.263 12.4453 120.184 12.5451 120.13 12.6585C120.075 12.7719 120.047 12.896 120.047 13.0217C120.047 14.718 120.047 16.2241 120.047 17.54C120.047 17.6398 120.01 18.1449 119.935 19.0554C119.792 20.8079 120.693 21.5968 122.639 21.4222C122.945 21.3953 123.25 21.4876 123.489 21.6795C123.728 21.8715 123.883 22.1481 123.92 22.4512C124.207 24.6464 123.693 25.7658 122.377 25.8095C122.065 25.8157 121.126 25.7222 119.561 25.5288C118.102 25.3418 117.01 24.6557 116.287 23.4708C115.832 22.7225 115.554 21.5718 115.454 20.019C115.305 17.6928 115.305 15.2606 115.454 12.7223C115.458 12.6604 115.447 12.5984 115.423 12.5398C115.399 12.4812 115.362 12.4273 115.314 12.3811C115.266 12.335 115.208 12.2976 115.144 12.271C115.08 12.2445 115.01 12.2294 114.94 12.2265L112.966 12.1517C112.826 12.1467 112.693 12.0849 112.594 11.9789C112.495 11.8729 112.437 11.7307 112.433 11.5811L112.339 8.30695C112.338 8.19693 112.39 8.08884 112.485 8.00399C112.58 7.91914 112.712 7.86369 112.854 7.84857L114.856 7.60535C114.914 7.59737 114.97 7.57604 115.02 7.54257C115.071 7.5091 115.115 7.46415 115.149 7.41029C115.184 7.35643 115.209 7.29472 115.223 7.22867C115.237 7.16262 115.239 7.09354 115.23 7.02536Z" fill="white"/>
<path d="M55.547 24.6683L55.4535 32.0398C55.4516 32.1762 55.402 32.3066 55.315 32.404C55.228 32.5015 55.1102 32.5586 54.9858 32.5636L51.7023 32.6478C51.6394 32.6503 51.5766 32.6396 51.5177 32.6163C51.4588 32.593 51.4051 32.5576 51.3596 32.5121C51.3142 32.4667 51.2781 32.4122 51.2533 32.352C51.2286 32.2917 51.2159 32.2269 51.2158 32.1614V8.42864C51.2151 8.29171 51.2621 8.15851 51.3489 8.05127C51.4357 7.94403 51.5571 7.86921 51.6929 7.8393C52.7157 7.60855 53.7385 7.63973 54.7612 7.93285C54.8853 7.96855 55.0065 8.03758 55.1175 8.13571C55.2285 8.23384 55.3269 8.359 55.4067 8.50348C55.7996 9.2082 56.2673 9.29862 56.8099 8.77476C57.1903 8.40682 57.5022 8.16983 57.7454 8.06381C61.8988 6.32385 65.3008 7.22501 67.9513 10.7673C69.8721 13.318 70.4958 15.9716 69.8222 18.7281C69.1799 21.3412 67.7424 23.3649 65.5097 24.7993C62.6971 26.6016 59.5134 26.4862 55.9586 24.4531C55.9177 24.4282 55.8709 24.414 55.823 24.4122C55.7751 24.4104 55.7277 24.421 55.6859 24.4429C55.644 24.4648 55.6091 24.4972 55.5847 24.5368C55.5603 24.5764 55.5473 24.6218 55.547 24.6683ZM65.4162 16.6701C65.4162 15.3651 64.8978 14.1135 63.975 13.1907C63.0522 12.268 61.8006 11.7495 60.4956 11.7495C59.1906 11.7495 57.9391 12.268 57.0163 13.1907C56.0935 14.1135 55.5751 15.3651 55.5751 16.6701C55.5751 17.9751 56.0935 19.2267 57.0163 20.1494C57.9391 21.0722 59.1906 21.5906 60.4956 21.5906C61.8006 21.5906 63.0522 21.0722 63.975 20.1494C64.8978 19.2267 65.4162 17.9751 65.4162 16.6701Z" fill="white"/>
<path d="M89.8786 16.6513C89.8786 17.8847 89.6357 19.106 89.1637 20.2455C88.6917 21.385 87.9999 22.4204 87.1277 23.2925C86.2556 24.1647 85.2202 24.8565 84.0807 25.3285C82.9412 25.8005 81.7199 26.0434 80.4865 26.0434C77.9956 26.0434 75.6067 25.0539 73.8454 23.2925C72.084 21.5312 71.0945 19.1423 71.0945 16.6513C71.0945 14.1604 72.084 11.7715 73.8454 10.0101C75.6067 8.2488 77.9956 7.25928 80.4865 7.25928C82.9775 7.25928 85.3664 8.2488 87.1277 10.0101C88.8891 11.7715 89.8786 14.1604 89.8786 16.6513ZM85.2481 16.6888C85.2481 15.421 84.7444 14.2051 83.848 13.3086C82.9515 12.4122 81.7356 11.9085 80.4678 11.9085C79.2 11.9085 77.9842 12.4122 77.0877 13.3086C76.1912 14.2051 75.6876 15.421 75.6876 16.6888C75.6876 17.9566 76.1912 19.1724 77.0877 20.0689C77.9842 20.9654 79.2 21.469 80.4678 21.469C81.7356 21.469 82.9515 20.9654 83.848 20.0689C84.7444 19.1724 85.2481 17.9566 85.2481 16.6888Z" fill="white"/>
<path d="M95.9779 13.742C97.4247 14.3282 98.8903 14.8645 100.375 15.351C103.942 16.5109 105.198 18.8215 104.144 22.2827C103.608 24.0539 102.239 25.2232 100.038 25.7907C96.0839 26.8135 93.0343 25.9841 90.889 23.3024C90.7078 23.0732 90.6124 22.7879 90.6192 22.4958C90.6261 22.2038 90.7347 21.9232 90.9264 21.7028C92.3421 20.0751 93.5332 19.7414 94.4999 20.7018C95.8906 22.0925 97.2345 22.4636 98.5317 21.815C99.7915 21.1851 100.041 20.4898 99.2801 19.7289C98.9807 19.4296 98.4787 19.1458 97.774 18.8777C96.7076 18.4723 95.6411 18.07 94.5747 17.6709C93.2526 17.1782 92.314 16.5827 91.7589 15.8842C90.7424 14.5995 90.4493 13.1464 90.8796 11.5249C91.2288 10.1965 92.0645 9.14571 93.3867 8.37239C96.5423 6.52017 99.7852 6.94113 103.115 9.63527C103.251 9.74603 103.361 9.88474 103.438 10.0419C103.515 10.1991 103.557 10.371 103.562 10.546C103.566 10.7209 103.533 10.8948 103.464 11.0557C103.395 11.2165 103.292 11.3606 103.162 11.4781C101.772 12.7441 100.428 13.0029 99.1304 12.2546C98.1326 11.6871 97.4715 11.4002 97.1472 11.3939C96.1244 11.369 95.5912 11.9427 95.5476 13.1152C95.5416 13.2457 95.5798 13.3763 95.6569 13.4886C95.734 13.6009 95.8462 13.6895 95.9779 13.742Z" fill="white"/>
<path d="M165.82 10.5894C167.198 12.2982 167.924 14.4654 167.999 17.0909C168.006 17.2791 167.974 17.4666 167.906 17.6422C167.838 17.8179 167.736 17.9782 167.605 18.1135C167.474 18.2488 167.317 18.3563 167.144 18.4298C166.971 18.5032 166.784 18.541 166.596 18.5409H155.492C154.22 18.5409 154.036 18.9868 154.94 19.8786C156.93 21.8306 159.131 22.342 161.545 21.4127C162.879 20.9013 163.752 20.6675 164.164 20.7111C165.062 20.8047 165.792 21.2724 166.353 22.1143C166.427 22.2306 166.465 22.3672 166.462 22.5069C166.459 22.6467 166.414 22.7835 166.334 22.9001C165.318 24.3719 163.902 25.3136 162.087 25.7252C159.967 26.2054 157.94 26.1462 156.007 25.5475C154.03 24.9363 152.452 23.82 151.273 22.1985C150.057 20.5209 149.49 18.625 149.571 16.5109C149.652 14.6275 150.257 12.847 151.385 11.1694C153.493 8.01376 156.446 6.7883 160.244 7.49302C162.664 7.94204 164.522 8.97417 165.82 10.5894ZM161.535 12.3387C158.629 10.7671 156.334 11.3596 154.65 14.1161C154.376 14.5651 154.494 14.7865 155.006 14.7803L162.443 14.6587C162.505 14.6579 162.566 14.644 162.622 14.6179C162.678 14.5918 162.728 14.5541 162.769 14.5072C162.81 14.4604 162.84 14.4055 162.858 14.3462C162.876 14.2868 162.881 14.2244 162.873 14.1629C162.748 13.3646 162.302 12.7566 161.535 12.3387Z" fill="white"/>
<path d="M129.814 7.6709H126.165C125.886 7.6709 125.66 7.89706 125.66 8.17605V25.0518C125.66 25.3308 125.886 25.557 126.165 25.557H129.814C130.093 25.557 130.319 25.3308 130.319 25.0518V8.17605C130.319 7.89706 130.093 7.6709 129.814 7.6709Z" fill="white"/>
<path d="M140.786 19.0367C141.048 19.7601 141.307 19.7539 141.563 19.018L145.193 8.52208C145.249 8.35255 145.339 8.20414 145.451 8.09945C145.562 7.99475 145.688 7.93949 145.81 7.94209L149.533 7.99822C149.628 7.99889 149.72 8.02507 149.802 8.07454C149.884 8.124 149.953 8.19532 150.004 8.28245C150.054 8.36959 150.084 8.46999 150.092 8.5752C150.1 8.6804 150.084 8.78731 150.048 8.88691L144.014 24.6776C143.931 24.8983 143.792 25.0889 143.615 25.2242C143.438 25.3595 143.231 25.4331 143.022 25.4353L138.925 25.454C138.796 25.456 138.666 25.4083 138.554 25.3177C138.441 25.227 138.352 25.0979 138.298 24.9488L132.021 8.46595C131.985 8.36869 131.976 8.26417 131.994 8.1617C132.012 8.05924 132.057 7.96201 132.124 7.87867C132.192 7.79533 132.28 7.72847 132.381 7.68404C132.483 7.63961 132.593 7.619 132.704 7.62403L136.221 7.77371C136.369 7.78199 136.509 7.82907 136.624 7.909C136.738 7.98893 136.823 8.09812 136.867 8.22273L140.786 19.0367Z" fill="white"/>
<path d="M110.004 7.78011L106.655 7.78595C106.288 7.78659 105.991 8.08447 105.992 8.45129L106.02 24.8967C106.021 25.2635 106.319 25.5604 106.686 25.5598L110.035 25.5539C110.401 25.5533 110.698 25.2554 110.698 24.8886L110.669 8.44312C110.668 8.07631 110.37 7.77946 110.004 7.78011Z" fill="white"/>
<path d="M19.9246 22.7786C22.3692 25.0861 24.6923 27.4653 26.8938 29.9162C27.0722 30.1154 27.1684 30.3747 27.1632 30.642C27.158 30.9094 27.0517 31.1648 26.8657 31.3568C24.5208 33.7828 22.2726 36.0186 20.121 38.0641C18.2002 39.8851 16.4571 41.0451 14.8918 41.544C12.6965 42.2425 10.5107 42.2706 8.33416 41.6282C5.75228 40.8674 3.67243 39.3987 2.09461 37.2222C0.435721 34.9334 -0.237813 32.2923 0.0740083 29.2988C0.460667 25.5819 2.46568 22.7849 6.08905 20.9077C11.1904 18.2634 15.8023 18.8871 19.9246 22.7786Z" fill="#5AC561"/>
<path d="M85.4071 54.2289C85.4016 54.2125 85.3924 54.1977 85.3801 54.1853C85.3679 54.1729 85.3528 54.1633 85.336 54.1571C85.3192 54.151 85.301 54.1483 85.2826 54.1494C85.2642 54.1505 85.2461 54.1552 85.2294 54.1634C82.766 55.4855 80.5396 56.0125 78.5502 55.7443C76.6543 55.4824 74.9175 54.3287 73.3396 52.2831C70.7765 48.9591 70.5738 45.4854 72.7316 41.862C74.0599 39.6294 75.697 38.1888 77.6428 37.5402C79.9378 36.7731 82.317 37.1878 84.7804 38.7844C85.3853 39.171 85.6909 38.9964 85.6971 38.2605L85.8 31.3474C85.8025 31.2003 85.8578 31.0601 85.954 30.9569C86.0502 30.8536 86.1797 30.7957 86.3145 30.7955L89.6448 30.7861C89.8309 30.7861 90.0093 30.867 90.1409 31.0108C90.2725 31.1547 90.3464 31.3498 90.3464 31.5532C90.3464 38.7189 90.3464 45.7879 90.3464 52.7602C90.3464 52.8226 90.3807 53.2404 90.4493 54.0137C90.5366 55.0427 90.1281 55.5728 89.2238 55.604C88.6563 55.6227 88.0015 55.6321 87.2594 55.6321C86.3301 55.6321 85.7127 55.1643 85.4071 54.2289ZM85.7439 46.5861C85.7439 45.2762 85.2235 44.0198 84.2972 43.0935C83.3709 42.1673 82.1146 41.6469 80.8047 41.6469C79.4947 41.6469 78.2384 42.1673 77.3121 43.0935C76.3858 44.0198 75.8654 45.2762 75.8654 46.5861C75.8654 47.8961 76.3858 49.1524 77.3121 50.0787C78.2384 51.005 79.4947 51.5254 80.8047 51.5254C82.1146 51.5254 83.3709 51.005 84.2972 50.0787C85.2235 49.1524 85.7439 47.8961 85.7439 46.5861Z" fill="#5AC561"/>
<path d="M105.117 54.1728C103.714 55.6945 101.924 56.2153 99.7476 55.7351C94.2097 54.5189 91.7525 51.0141 92.3762 45.2204C92.8439 40.8799 95.22 38.2762 99.5044 37.4093C101.718 36.9665 103.614 37.3906 105.192 38.6815C105.891 39.2553 106.249 39.0775 106.268 38.1483L106.389 31.3475C106.392 31.2005 106.445 31.0603 106.538 30.9571C106.631 30.8538 106.755 30.7959 106.885 30.7956L110.15 30.7769C110.356 30.7769 110.553 30.8665 110.699 31.0262C110.845 31.1858 110.926 31.4024 110.926 31.6281V53.8548C110.926 54.1423 110.742 54.4585 110.404 54.7544C110.066 55.0504 109.592 55.3096 109.056 55.4918C107.634 55.9783 106.561 55.5667 105.838 54.257C105.803 54.1955 105.754 54.143 105.695 54.1039C105.636 54.0648 105.569 54.0402 105.499 54.032C105.429 54.0238 105.357 54.0323 105.291 54.0567C105.225 54.0812 105.165 54.121 105.117 54.1728ZM106.38 46.5862C106.38 45.2837 105.863 44.0345 104.942 43.1135C104.021 42.1924 102.771 41.675 101.469 41.675C100.166 41.675 98.9172 42.1924 97.9962 43.1135C97.0751 44.0345 96.5577 45.2837 96.5577 46.5862C96.5577 47.8887 97.0751 49.1379 97.9962 50.0589C98.9172 50.98 100.166 51.4974 101.469 51.4974C102.771 51.4974 104.021 50.98 104.942 50.0589C105.863 49.1379 106.38 47.8887 106.38 46.5862Z" fill="#5AC561"/>
<path d="M33.6384 36.6328C36.4884 39.0774 38.4934 41.2914 39.6534 43.2746C41.331 46.1308 41.6833 49.037 40.7105 51.9931C39.8249 54.6748 38.1816 56.8263 35.7806 58.4478C33.1737 60.2002 30.3019 60.7023 27.1649 59.9539C24.3211 59.2804 22.0511 57.8086 20.3548 55.5385C18.3154 52.8132 17.7261 49.7043 18.5867 46.2119C19.0482 44.3348 20.2176 42.3609 22.0947 40.2904C24.3835 37.7584 26.7689 35.3138 29.251 32.9564C29.3445 32.8667 29.4677 32.8149 29.596 32.8115C29.7243 32.808 29.8483 32.8531 29.9433 32.9377C30.5919 33.5301 31.2093 34.1507 31.7955 34.7993C32.4378 35.5102 33.0521 36.1214 33.6384 36.6328ZM29.2604 39.1305C27.9071 40.3341 26.6255 41.6063 25.4156 42.9471C21.5802 47.1754 21.3775 50.8643 24.8076 54.0137C26.3168 55.3982 27.9663 56.1154 29.7562 56.1653C31.9327 56.2276 33.7132 55.3608 35.0977 53.5647C37.9165 49.9039 37.5985 46.3616 34.1435 42.9378C32.8027 41.6094 31.4088 40.3403 29.962 39.1305C29.86 39.0466 29.7331 39.0005 29.6044 39.0005C29.4757 39.0005 29.3536 39.0466 29.2604 39.1305Z" fill="white"/>
<path d="M69.7569 46.5768C69.7569 49.0653 68.7683 51.4518 67.0087 53.2114C65.2491 54.971 62.8626 55.9595 60.3742 55.9595C57.8857 55.9595 55.4992 54.971 53.7396 53.2114C51.98 51.4518 50.9915 49.0653 50.9915 46.5768C50.9915 44.0884 51.98 41.7018 53.7396 39.9422C55.4992 38.1826 57.8857 37.1941 60.3742 37.1941C62.8626 37.1941 65.2491 38.1826 67.0087 39.9422C68.7683 41.7018 69.7569 44.0884 69.7569 46.5768ZM65.1918 46.5768C65.1918 45.2991 64.6842 44.0737 63.7808 43.1702C62.8773 42.2667 61.6519 41.7592 60.3742 41.7592C59.0964 41.7592 57.8711 42.2667 56.9676 43.1702C56.0641 44.0737 55.5565 45.2991 55.5565 46.5768C55.5565 47.8545 56.0641 49.0799 56.9676 49.9834C57.8711 50.8869 59.0964 51.3944 60.3742 51.3944C61.6519 51.3944 62.8773 50.8869 63.7808 49.9834C64.6842 49.0799 65.1918 47.8545 65.1918 46.5768Z" fill="#5AC561"/>
<path d="M122.143 50.9921C122.266 50.8262 122.346 50.6329 122.378 50.4288C122.409 50.2247 122.39 50.0161 122.323 49.8208C122.256 49.6256 122.142 49.4497 121.992 49.3082C121.841 49.1668 121.659 49.0641 121.46 49.009C119.926 48.5786 118.466 48.0797 117.082 47.5122C115.672 46.9322 114.703 46.2525 114.173 45.4729C113.437 44.4002 113.212 43.1405 113.499 41.6936C113.917 39.5732 115.214 38.1981 117.391 37.5682C121.051 36.5143 124.023 37.378 126.306 40.1595C126.394 40.2647 126.445 40.3963 126.45 40.5335C126.455 40.6707 126.414 40.8058 126.334 40.9172C124.93 42.9191 123.206 43.1186 121.16 41.5159C119.944 40.5679 119.046 40.7239 118.466 41.9836C117.942 43.1249 118.339 43.8452 119.654 44.1445C120.977 44.4501 122.246 44.8742 123.462 45.4168C124.809 46.0155 125.797 46.8543 126.427 47.9332C127.568 49.9039 127.506 51.6844 126.24 53.2747C125.024 54.8026 123.303 55.6882 121.076 55.9314C118.794 56.1871 116.605 55.6227 114.509 54.2382C112.557 52.9473 112.729 51.6283 115.024 50.2812C115.31 50.112 115.64 50.0298 115.972 50.0448C116.304 50.0597 116.625 50.1711 116.895 50.3654C119.396 52.1552 121.145 52.3642 122.143 50.9921Z" fill="#5AC561"/>
</svg>
