<svg width="168" height="61" viewBox="0 0 168 61" fill="none" xmlns="http://www.w3.org/2000/svg">
<path d="M108.354 5.55666C109.888 5.55666 111.132 4.31276 111.132 2.77833C111.132 1.2439 109.888 0 108.354 0C106.82 0 105.576 1.2439 105.576 2.77833C105.576 4.31276 106.82 5.55666 108.354 5.55666Z" fill="white"/>
<path d="M127.905 5.54732C129.429 5.54732 130.665 4.31179 130.665 2.7877C130.665 1.2636 129.429 0.0280762 127.905 0.0280762C126.381 0.0280762 125.146 1.2636 125.146 2.7877C125.146 4.31179 126.381 5.54732 127.905 5.54732Z" fill="white"/>
<path d="M38.185 5.04215C41.3531 8.45348 41.9549 12.3824 39.9904 16.829C39.2358 18.5378 37.7266 20.5272 35.4628 22.7973C33.7228 24.5372 31.9361 26.3209 30.1025 28.1481C29.9879 28.2645 29.8334 28.333 29.6702 28.3399C29.5071 28.3469 29.3473 28.2917 29.2232 28.1855C26.554 25.8843 23.9877 23.3897 21.5243 20.7018C18.9549 17.9079 17.8573 14.8333 18.2315 11.4781C18.5807 8.32251 19.9808 5.68762 22.4317 3.57347C24.839 1.49674 27.6766 0.701595 30.9445 1.18804C33.7696 1.60588 36.1831 2.89058 38.185 5.04215ZM31.0754 5.42569C29.2107 4.93925 27.5207 5.17623 26.0052 6.13664C24.0782 7.36522 22.9369 9.16755 22.5814 11.5436C22.2072 14.0569 23.099 16.3363 25.2568 18.3819C26.5727 19.6354 27.8294 20.917 29.0268 22.2266C29.0958 22.3032 29.1795 22.3651 29.273 22.4087C29.3664 22.4522 29.4677 22.4764 29.5707 22.4799C29.6738 22.4834 29.7765 22.4661 29.8727 22.429C29.9689 22.3919 30.0566 22.3358 30.1306 22.2641C31.5213 20.9419 32.8216 19.6385 34.0315 18.3538C37.499 14.6868 37.8544 11.2412 35.0979 8.01693C33.9629 6.68857 32.6221 5.82482 31.0754 5.42569Z" fill="#5AC561"/>
<path d="M115.229 7.02536C114.886 4.70541 116.277 3.45188 119.402 3.26479C119.545 3.25693 119.688 3.28313 119.819 3.34123C119.95 3.39934 120.066 3.4877 120.156 3.59906C120.246 3.71043 120.309 3.84163 120.339 3.98191C120.369 4.12218 120.365 4.26754 120.328 4.40606C119.642 6.95052 120.309 8.05437 122.33 7.7176C122.674 7.65804 123.028 7.73757 123.315 7.93894C123.603 8.14032 123.8 8.44731 123.864 8.79339C124.375 11.5624 123.443 12.6974 121.067 12.1985C120.944 12.1719 120.817 12.1733 120.694 12.2023C120.572 12.2313 120.458 12.2874 120.36 12.3663C120.262 12.4453 120.184 12.5451 120.129 12.6585C120.075 12.7719 120.047 12.896 120.047 13.0217C120.047 14.718 120.047 16.2241 120.047 17.54C120.047 17.6398 120.01 18.1449 119.935 19.0554C119.791 20.8079 120.693 21.5968 122.638 21.4222C122.945 21.3953 123.25 21.4876 123.489 21.6795C123.728 21.8715 123.883 22.1481 123.92 22.4512C124.207 24.6464 123.692 25.7658 122.376 25.8095C122.065 25.8157 121.126 25.7222 119.561 25.5288C118.101 25.3418 117.01 24.6557 116.287 23.4708C115.831 22.7225 115.554 21.5718 115.454 20.019C115.304 17.6928 115.304 15.2606 115.454 12.7223C115.457 12.6604 115.447 12.5984 115.423 12.5398C115.399 12.4812 115.362 12.4273 115.314 12.3811C115.266 12.335 115.208 12.2976 115.144 12.271C115.08 12.2445 115.01 12.2294 114.939 12.2265L112.966 12.1517C112.826 12.1467 112.692 12.0849 112.593 11.9789C112.494 11.8729 112.437 11.7307 112.432 11.5811L112.339 8.30695C112.338 8.19693 112.39 8.08884 112.485 8.00399C112.58 7.91914 112.712 7.86369 112.853 7.84857L114.855 7.60535C114.914 7.59737 114.97 7.57604 115.02 7.54257C115.071 7.5091 115.114 7.46415 115.149 7.41029C115.184 7.35643 115.209 7.29472 115.223 7.22867C115.236 7.16262 115.239 7.09354 115.229 7.02536Z" fill="white"/>
<path d="M55.547 24.6683L55.4535 32.0398C55.4516 32.1762 55.402 32.3066 55.315 32.404C55.228 32.5015 55.1102 32.5586 54.9858 32.5636L51.7023 32.6478C51.6394 32.6503 51.5766 32.6396 51.5177 32.6163C51.4588 32.593 51.4051 32.5576 51.3596 32.5121C51.3142 32.4667 51.2781 32.4122 51.2533 32.352C51.2286 32.2917 51.2159 32.2269 51.2158 32.1614V8.42864C51.2151 8.29171 51.2621 8.15851 51.3489 8.05127C51.4357 7.94403 51.5571 7.86921 51.6929 7.8393C52.7157 7.60855 53.7385 7.63973 54.7612 7.93285C54.8853 7.96855 55.0065 8.03758 55.1175 8.13571C55.2285 8.23384 55.3269 8.359 55.4067 8.50348C55.7996 9.2082 56.2673 9.29862 56.8099 8.77476C57.1903 8.40682 57.5022 8.16983 57.7454 8.06381C61.8988 6.32385 65.3008 7.22501 67.9513 10.7673C69.8721 13.318 70.4958 15.9716 69.8222 18.7281C69.1799 21.3412 67.7424 23.3649 65.5097 24.7993C62.6971 26.6016 59.5134 26.4862 55.9586 24.4531C55.9177 24.4282 55.8709 24.414 55.823 24.4122C55.7751 24.4104 55.7277 24.421 55.6859 24.4429C55.644 24.4648 55.6091 24.4972 55.5847 24.5368C55.5603 24.5764 55.5473 24.6218 55.547 24.6683ZM65.4162 16.6701C65.4162 15.3651 64.8978 14.1135 63.975 13.1907C63.0522 12.268 61.8006 11.7495 60.4956 11.7495C59.1906 11.7495 57.9391 12.268 57.0163 13.1907C56.0935 14.1135 55.5751 15.3651 55.5751 16.6701C55.5751 17.9751 56.0935 19.2267 57.0163 20.1494C57.9391 21.0722 59.1906 21.5906 60.4956 21.5906C61.8006 21.5906 63.0522 21.0722 63.975 20.1494C64.8978 19.2267 65.4162 17.9751 65.4162 16.6701Z" fill="white"/>
<path d="M89.8784 16.6513C89.8784 17.8847 89.6354 19.106 89.1634 20.2455C88.6914 21.385 87.9996 22.4204 87.1275 23.2925C86.2554 24.1647 85.22 24.8565 84.0805 25.3285C82.941 25.8005 81.7197 26.0434 80.4863 26.0434C77.9954 26.0434 75.6065 25.0539 73.8451 23.2925C72.0838 21.5312 71.0942 19.1423 71.0942 16.6513C71.0942 14.1604 72.0838 11.7715 73.8451 10.0101C75.6065 8.2488 77.9954 7.25928 80.4863 7.25928C82.9772 7.25928 85.3661 8.2488 87.1275 10.0101C88.8888 11.7715 89.8784 14.1604 89.8784 16.6513ZM85.2478 16.6888C85.2478 15.421 84.7442 14.2051 83.8477 13.3086C82.9513 12.4122 81.7354 11.9085 80.4676 11.9085C79.1998 11.9085 77.9839 12.4122 77.0875 13.3086C76.191 14.2051 75.6874 15.421 75.6874 16.6888C75.6874 17.9566 76.191 19.1724 77.0875 20.0689C77.9839 20.9654 79.1998 21.469 80.4676 21.469C81.7354 21.469 82.9513 20.9654 83.8477 20.0689C84.7442 19.1724 85.2478 17.9566 85.2478 16.6888Z" fill="white"/>
<path d="M95.9776 13.742C97.4245 14.3282 98.8901 14.8645 100.374 15.351C103.942 16.5109 105.198 18.8215 104.144 22.2827C103.608 24.0539 102.239 25.2232 100.038 25.7907C96.0837 26.8135 93.034 25.9841 90.8887 23.3024C90.7076 23.0732 90.6122 22.7879 90.619 22.4958C90.6258 22.2038 90.7345 21.9232 90.9261 21.7028C92.3418 20.0751 93.533 19.7414 94.4996 20.7018C95.8903 22.0925 97.2343 22.4636 98.5315 21.815C99.7912 21.1851 100.041 20.4898 99.2798 19.7289C98.9805 19.4296 98.4785 19.1458 97.7737 18.8777C96.7073 18.4723 95.6409 18.07 94.5744 17.6709C93.2523 17.1782 92.3137 16.5827 91.7587 15.8842C90.7422 14.5995 90.449 13.1464 90.8794 11.5249C91.2286 10.1965 92.0643 9.14571 93.3864 8.37239C96.542 6.52017 99.785 6.94113 103.115 9.63527C103.251 9.74603 103.361 9.88474 103.438 10.0419C103.515 10.1991 103.557 10.371 103.561 10.546C103.566 10.7209 103.532 10.8948 103.463 11.0557C103.395 11.2165 103.292 11.3606 103.162 11.4781C101.771 12.7441 100.427 13.0029 99.1302 12.2546C98.1323 11.6871 97.4713 11.4002 97.147 11.3939C96.1242 11.369 95.591 11.9427 95.5473 13.1152C95.5413 13.2457 95.5795 13.3763 95.6567 13.4886C95.7338 13.6009 95.846 13.6895 95.9776 13.742Z" fill="white"/>
<path d="M165.82 10.5894C167.198 12.2982 167.924 14.4654 167.999 17.0909C168.006 17.2791 167.974 17.4666 167.906 17.6422C167.838 17.8179 167.736 17.9782 167.605 18.1135C167.474 18.2488 167.317 18.3563 167.144 18.4298C166.971 18.5032 166.784 18.541 166.596 18.5409H155.492C154.22 18.5409 154.036 18.9868 154.94 19.8786C156.93 21.8306 159.131 22.342 161.545 21.4127C162.879 20.9013 163.752 20.6675 164.164 20.7111C165.062 20.8047 165.792 21.2724 166.353 22.1143C166.427 22.2306 166.465 22.3672 166.462 22.5069C166.459 22.6467 166.414 22.7835 166.334 22.9001C165.318 24.3719 163.902 25.3136 162.087 25.7252C159.967 26.2054 157.94 26.1462 156.007 25.5475C154.03 24.9363 152.452 23.82 151.273 22.1985C150.057 20.5209 149.49 18.625 149.571 16.5109C149.652 14.6275 150.257 12.847 151.385 11.1694C153.493 8.01376 156.446 6.7883 160.244 7.49302C162.664 7.94204 164.522 8.97417 165.82 10.5894ZM161.535 12.3387C158.629 10.7671 156.334 11.3596 154.65 14.1161C154.376 14.5651 154.494 14.7865 155.006 14.7803L162.443 14.6587C162.505 14.6579 162.566 14.644 162.622 14.6179C162.678 14.5918 162.728 14.5541 162.769 14.5072C162.81 14.4604 162.84 14.4055 162.858 14.3462C162.876 14.2868 162.881 14.2244 162.873 14.1629C162.748 13.3646 162.302 12.7566 161.535 12.3387Z" fill="white"/>
<path d="M129.814 7.6709H126.165C125.886 7.6709 125.66 7.89706 125.66 8.17605V25.0518C125.66 25.3308 125.886 25.557 126.165 25.557H129.814C130.093 25.557 130.319 25.3308 130.319 25.0518V8.17605C130.319 7.89706 130.093 7.6709 129.814 7.6709Z" fill="white"/>
<path d="M140.787 19.0367C141.049 19.7601 141.307 19.7539 141.563 19.018L145.193 8.52208C145.249 8.35255 145.339 8.20414 145.451 8.09945C145.562 7.99475 145.688 7.93949 145.81 7.94209L149.533 7.99822C149.628 7.99889 149.721 8.02507 149.802 8.07454C149.884 8.124 149.953 8.19532 150.004 8.28245C150.054 8.36959 150.085 8.46999 150.092 8.5752C150.1 8.6804 150.085 8.78731 150.048 8.88691L144.014 24.6776C143.932 24.8983 143.793 25.0889 143.615 25.2242C143.438 25.3595 143.232 25.4331 143.023 25.4353L138.925 25.454C138.796 25.456 138.667 25.4083 138.554 25.3177C138.442 25.227 138.352 25.0979 138.298 24.9488L132.021 8.46595C131.986 8.36869 131.976 8.26417 131.994 8.1617C132.012 8.05924 132.057 7.96201 132.125 7.87867C132.192 7.79533 132.281 7.72847 132.382 7.68404C132.483 7.63961 132.594 7.619 132.704 7.62403L136.222 7.77371C136.369 7.78199 136.509 7.82907 136.624 7.909C136.739 7.98893 136.823 8.09812 136.867 8.22273L140.787 19.0367Z" fill="white"/>
<path d="M110.004 7.78011L106.655 7.78595C106.288 7.78659 105.991 8.08447 105.992 8.45129L106.021 24.8967C106.021 25.2635 106.319 25.5604 106.686 25.5598L110.035 25.5539C110.402 25.5533 110.699 25.2554 110.698 24.8886L110.669 8.44312C110.669 8.07631 110.371 7.77946 110.004 7.78011Z" fill="white"/>
<path d="M19.9246 22.7786C22.3692 25.0861 24.6923 27.4653 26.8938 29.9162C27.0722 30.1154 27.1684 30.3747 27.1632 30.642C27.158 30.9094 27.0517 31.1648 26.8657 31.3568C24.5208 33.7828 22.2726 36.0186 20.121 38.0641C18.2002 39.8851 16.4571 41.0451 14.8918 41.544C12.6965 42.2425 10.5107 42.2706 8.33416 41.6282C5.75228 40.8674 3.67243 39.3987 2.09461 37.2222C0.435721 34.9334 -0.237813 32.2923 0.0740083 29.2988C0.460667 25.5819 2.46568 22.7849 6.08905 20.9077C11.1904 18.2634 15.8023 18.8871 19.9246 22.7786Z" fill="#5AC561"/>
<path d="M85.4069 54.2289C85.4013 54.2125 85.3921 54.1977 85.3799 54.1853C85.3676 54.1729 85.3526 54.1633 85.3358 54.1571C85.3189 54.151 85.3007 54.1483 85.2824 54.1494C85.264 54.1505 85.2458 54.1552 85.2292 54.1634C82.7658 55.4855 80.5394 56.0125 78.5499 55.7443C76.6541 55.4824 74.9172 54.3287 73.3394 52.2831C70.7762 48.9591 70.5735 45.4854 72.7313 41.862C74.0597 39.6294 75.6968 38.1888 77.6425 37.5402C79.9375 36.7731 82.3167 37.1878 84.7801 38.7844C85.3851 39.171 85.6906 38.9964 85.6969 38.2605L85.7998 31.3474C85.8022 31.2003 85.8575 31.0601 85.9537 30.9569C86.05 30.8536 86.1794 30.7957 86.3143 30.7955L89.6445 30.7861C89.8306 30.7861 90.0091 30.867 90.1406 31.0108C90.2722 31.1547 90.3461 31.3498 90.3461 31.5532C90.3461 38.7189 90.3461 45.7879 90.3461 52.7602C90.3461 52.8226 90.3804 53.2404 90.449 54.0137C90.5364 55.0427 90.1279 55.5728 89.2236 55.604C88.6561 55.6227 88.0012 55.6321 87.2591 55.6321C86.3299 55.6321 85.7125 55.1643 85.4069 54.2289ZM85.7437 46.5861C85.7437 45.2762 85.2233 44.0198 84.297 43.0935C83.3707 42.1673 82.1144 41.6469 80.8044 41.6469C79.4944 41.6469 78.2381 42.1673 77.3118 43.0935C76.3855 44.0198 75.8652 45.2762 75.8652 46.5861C75.8652 47.8961 76.3855 49.1524 77.3118 50.0787C78.2381 51.005 79.4944 51.5254 80.8044 51.5254C82.1144 51.5254 83.3707 51.005 84.297 50.0787C85.2233 49.1524 85.7437 47.8961 85.7437 46.5861Z" fill="#5AC561"/>
<path d="M105.117 54.1728C103.714 55.6945 101.924 56.2153 99.7479 55.7351C94.2099 54.5189 91.7528 51.0141 92.3764 45.2204C92.8442 40.8799 95.2202 38.2762 99.5047 37.4093C101.719 36.9665 103.614 37.3906 105.192 38.6815C105.891 39.2553 106.249 39.0775 106.268 38.1483L106.39 31.3475C106.392 31.2005 106.445 31.0603 106.538 30.9571C106.631 30.8538 106.756 30.7959 106.885 30.7956L110.15 30.7769C110.356 30.7769 110.554 30.8665 110.699 31.0262C110.845 31.1858 110.927 31.4024 110.927 31.6281V53.8548C110.926 54.1423 110.743 54.4585 110.404 54.7544C110.066 55.0504 109.592 55.3096 109.056 55.4918C107.634 55.9783 106.561 55.5667 105.838 54.257C105.803 54.1955 105.754 54.143 105.695 54.1039C105.636 54.0648 105.569 54.0402 105.499 54.032C105.429 54.0238 105.358 54.0323 105.291 54.0567C105.225 54.0812 105.165 54.121 105.117 54.1728ZM106.38 46.5862C106.38 45.2837 105.863 44.0345 104.942 43.1135C104.021 42.1924 102.772 41.675 101.469 41.675C100.167 41.675 98.9174 42.1924 97.9964 43.1135C97.0754 44.0345 96.5579 45.2837 96.5579 46.5862C96.5579 47.8887 97.0754 49.1379 97.9964 50.0589C98.9174 50.98 100.167 51.4974 101.469 51.4974C102.772 51.4974 104.021 50.98 104.942 50.0589C105.863 49.1379 106.38 47.8887 106.38 46.5862Z" fill="#5AC561"/>
<path d="M33.6384 36.6328C36.4884 39.0774 38.4934 41.2914 39.6534 43.2746C41.331 46.1308 41.6833 49.037 40.7105 51.9931C39.8249 54.6748 38.1816 56.8263 35.7806 58.4478C33.1737 60.2002 30.3019 60.7023 27.1649 59.9539C24.3211 59.2804 22.0511 57.8086 20.3548 55.5385C18.3154 52.8132 17.7261 49.7043 18.5867 46.2119C19.0482 44.3348 20.2176 42.3609 22.0947 40.2904C24.3835 37.7584 26.7689 35.3138 29.251 32.9564C29.3445 32.8667 29.4677 32.8149 29.596 32.8115C29.7243 32.808 29.8483 32.8531 29.9433 32.9377C30.5919 33.5301 31.2093 34.1507 31.7955 34.7993C32.4378 35.5102 33.0521 36.1214 33.6384 36.6328ZM29.2604 39.1305C27.9071 40.3341 26.6255 41.6063 25.4156 42.9471C21.5802 47.1754 21.3775 50.8643 24.8076 54.0137C26.3168 55.3982 27.9663 56.1154 29.7562 56.1653C31.9327 56.2276 33.7132 55.3608 35.0977 53.5647C37.9165 49.9039 37.5985 46.3616 34.1435 42.9378C32.8027 41.6094 31.4088 40.3403 29.962 39.1305C29.86 39.0466 29.7331 39.0005 29.6044 39.0005C29.4757 39.0005 29.3536 39.0466 29.2604 39.1305Z" fill="white"/>
<path d="M69.7566 46.5768C69.7566 49.0653 68.7681 51.4518 67.0085 53.2114C65.2489 54.971 62.8624 55.9595 60.3739 55.9595C57.8855 55.9595 55.4989 54.971 53.7393 53.2114C51.9797 51.4518 50.9912 49.0653 50.9912 46.5768C50.9912 44.0884 51.9797 41.7018 53.7393 39.9422C55.4989 38.1826 57.8855 37.1941 60.3739 37.1941C62.8624 37.1941 65.2489 38.1826 67.0085 39.9422C68.7681 41.7018 69.7566 44.0884 69.7566 46.5768ZM65.1916 46.5768C65.1916 45.2991 64.684 44.0737 63.7805 43.1702C62.877 42.2667 61.6516 41.7592 60.3739 41.7592C59.0962 41.7592 57.8708 42.2667 56.9673 43.1702C56.0638 44.0737 55.5563 45.2991 55.5563 46.5768C55.5563 47.8545 56.0638 49.0799 56.9673 49.9834C57.8708 50.8869 59.0962 51.3944 60.3739 51.3944C61.6516 51.3944 62.877 50.8869 63.7805 49.9834C64.684 49.0799 65.1916 47.8545 65.1916 46.5768Z" fill="#5AC561"/>
<path d="M122.143 50.9921C122.266 50.8262 122.346 50.6329 122.378 50.4288C122.409 50.2247 122.39 50.0161 122.323 49.8208C122.256 49.6256 122.142 49.4497 121.992 49.3082C121.841 49.1668 121.659 49.0641 121.46 49.009C119.926 48.5786 118.466 48.0797 117.082 47.5122C115.672 46.9322 114.703 46.2525 114.173 45.4729C113.437 44.4002 113.212 43.1405 113.499 41.6936C113.917 39.5732 115.214 38.1981 117.391 37.5682C121.051 36.5143 124.023 37.378 126.306 40.1595C126.394 40.2647 126.445 40.3963 126.45 40.5335C126.455 40.6707 126.414 40.8058 126.334 40.9172C124.93 42.9191 123.206 43.1186 121.16 41.5159C119.944 40.5679 119.046 40.7239 118.466 41.9836C117.942 43.1249 118.339 43.8452 119.654 44.1445C120.977 44.4501 122.246 44.8742 123.462 45.4168C124.809 46.0155 125.797 46.8543 126.427 47.9332C127.568 49.9039 127.506 51.6844 126.24 53.2747C125.024 54.8026 123.303 55.6882 121.076 55.9314C118.794 56.1871 116.605 55.6227 114.509 54.2382C112.557 52.9473 112.729 51.6283 115.024 50.2812C115.31 50.112 115.64 50.0298 115.972 50.0448C116.304 50.0597 116.625 50.1711 116.895 50.3654C119.396 52.1552 121.145 52.3642 122.143 50.9921Z" fill="#5AC561"/>
</svg>
