<svg width="24" height="28" viewBox="0 0 24 28" fill="none" xmlns="http://www.w3.org/2000/svg">
<path d="M12 20C12.34 20 12.6252 19.8848 12.8556 19.6544C13.086 19.424 13.2008 19.1392 13.2 18.8V14C13.2 13.66 13.0848 13.3748 12.8544 13.1444C12.624 12.914 12.3392 12.7992 12 12.8C11.66 12.8 11.3748 12.9152 11.1444 13.1456C10.914 13.376 10.7992 13.6608 10.8 14V18.8C10.8 19.14 10.9152 19.4252 11.1456 19.6556C11.376 19.886 11.6608 20.0008 12 20ZM12 10.4C12.34 10.4 12.6252 10.2848 12.8556 10.0544C13.086 9.824 13.2008 9.5392 13.2 9.2C13.2 8.86 13.0848 8.5748 12.8544 8.3444C12.624 8.114 12.3392 7.9992 12 8C11.66 8 11.3748 8.1152 11.1444 8.3456C10.914 8.576 10.7992 8.8608 10.8 9.2C10.8 9.54 10.9152 9.8252 11.1456 10.0556C11.376 10.286 11.6608 10.4008 12 10.4ZM12 26C10.34 26 8.78 25.6848 7.32 25.0544C5.86 24.424 4.59 23.5692 3.51 22.49C2.43 21.41 1.5752 20.14 0.9456 18.68C0.316 17.22 0.0008 15.66 0 14C0 12.34 0.3152 10.78 0.9456 9.32C1.576 7.86 2.4308 6.59 3.51 5.51C4.59 4.43 5.86 3.5752 7.32 2.9456C8.78 2.316 10.34 2.0008 12 2C13.66 2 15.22 2.3152 16.68 2.9456C18.14 3.576 19.41 4.4308 20.49 5.51C21.57 6.59 22.4252 7.86 23.0556 9.32C23.686 10.78 24.0008 12.34 24 14C24 15.66 23.6848 17.22 23.0544 18.68C22.424 20.14 21.5692 21.41 20.49 22.49C19.41 23.57 18.14 24.4252 16.68 25.0556C15.22 25.686 13.66 26.0008 12 26Z" fill="#47B7CB"/>
</svg>
