<svg width="50" height="100" viewBox="0 0 50 100" fill="none" xmlns="http://www.w3.org/2000/svg">
<path d="M49.0398 92.5C49.0398 96.6421 45.6616 100.06 41.57 99.4149C31.3507 97.8038 21.8221 92.9149 14.4197 85.3553C5.23788 75.9785 0.0795895 63.2608 0.0795898 50C0.0795902 36.7392 5.23789 24.0215 14.4197 14.6447C21.8221 7.08511 31.3507 2.19619 41.57 0.585144C45.6616 -0.0598828 49.0398 3.35786 49.0398 7.5C49.0398 11.6421 45.6411 14.9169 41.6018 15.8341C35.2898 17.2674 29.45 20.5084 24.8057 25.2513C18.3785 31.815 14.7677 40.7174 14.7677 50C14.7677 59.2826 18.3785 68.185 24.8057 74.7487C29.4499 79.4916 35.2898 82.7326 41.6018 84.1659C45.6411 85.0831 49.0398 88.3579 49.0398 92.5Z" fill="#5AC561"/>
</svg>
