<svg width="98" height="100" viewBox="0 0 98 100" fill="none" xmlns="http://www.w3.org/2000/svg">
<path d="M49.0398 92.5C49.0398 96.6421 45.6618 100.06 41.5702 99.4147C34.5414 98.3066 27.8022 95.6426 21.839 91.5735C13.7875 86.0794 7.51215 78.2705 3.80646 69.1342C0.100781 59.9979 -0.868795 49.9445 1.02035 40.2455C2.90949 30.5464 7.5725 21.6373 14.4197 14.6447C21.2669 7.65203 29.9908 2.88999 39.4882 0.960735C48.9855 -0.968525 58.8298 0.021643 67.7761 3.80603C76.7224 7.59041 84.369 13.999 89.7488 22.2215C93.7905 28.3989 96.4165 35.3915 97.4727 42.6812C98.0544 46.6952 94.712 50 90.656 50C86.6 50 83.3881 46.678 82.5598 42.7075C81.6591 38.3896 79.9618 34.2625 77.5361 30.555C73.7702 24.7993 68.4176 20.3133 62.1552 17.6642C55.8928 15.0152 49.0018 14.322 42.3537 15.6725C35.7055 17.023 29.5988 20.3564 24.8057 25.2513C20.0127 30.1461 16.7486 36.3825 15.4262 43.1718C14.1038 49.9612 14.7825 56.9985 17.3765 63.3939C19.9705 69.7893 24.3632 75.2556 29.9992 79.1014C33.5445 81.5206 37.4816 83.2303 41.6019 84.1658C45.6412 85.083 49.0398 88.3579 49.0398 92.5Z" fill="#5AC561"/>
</svg>
