<svg width="24" height="25" viewBox="0 0 24 25" fill="none" xmlns="http://www.w3.org/2000/svg">
<path fill-rule="evenodd" clip-rule="evenodd" d="M14.1719 0.238657C13.4643 0.081206 12.7363 0 12 0C9.34785 0 6.80431 1.05357 4.92895 2.92893C3.05358 4.8043 2.00002 7.34783 2.00002 10C2.00002 13.285 1.40252 16.0487 0.273766 17.9925C0.0966042 18.2963 0.00268396 18.6414 0.00147663 18.9931C0.000269303 19.3448 0.0918178 19.6906 0.266889 19.9956C0.441961 20.3006 0.694365 20.5541 0.998648 20.7304C1.30293 20.9068 1.64833 20.9997 2.00002 21H22C22.3515 20.9993 22.6966 20.906 23.0005 20.7295C23.3044 20.553 23.5565 20.2995 23.7313 19.9945C23.906 19.6896 23.9974 19.344 23.9961 18.9925C23.9947 18.641 23.9008 18.2961 23.7238 17.9925C22.5975 16.0475 22 13.2837 22 10C22 9.20371 21.905 8.41722 21.7214 7.65565C20.9189 8.11344 19.99 8.375 19 8.375C15.9624 8.375 13.5 5.91257 13.5 2.875C13.5 1.91978 13.7435 1.02144 14.1719 0.238657ZM16.7071 24.7071C16.8947 24.5196 17 24.2652 17 24C17 23.7348 16.8947 23.4804 16.7071 23.2929C16.5196 23.1054 16.2652 23 16 23H8.00002C7.7348 23 7.48045 23.1054 7.29291 23.2929C7.10537 23.4804 7.00002 23.7348 7.00002 24C7.00002 24.2652 7.10537 24.5196 7.29291 24.7071C7.48045 24.8946 7.7348 25 8.00002 25H16C16.2652 25 16.5196 24.8946 16.7071 24.7071Z" fill="#ECF3E8"/>
</svg>
