<svg width="208" height="85" viewBox="0 0 208 85" fill="none" xmlns="http://www.w3.org/2000/svg">
<path d="M128.354 17.5567C129.888 17.5567 131.132 16.3128 131.132 14.7783C131.132 13.2439 129.888 12 128.354 12C126.82 12 125.576 13.2439 125.576 14.7783C125.576 16.3128 126.82 17.5567 128.354 17.5567Z" fill="white"/>
<path d="M147.905 17.5473C149.429 17.5473 150.665 16.3118 150.665 14.7877C150.665 13.2636 149.429 12.028 147.905 12.028C146.381 12.028 145.146 13.2636 145.146 14.7877C145.146 16.3118 146.381 17.5473 147.905 17.5473Z" fill="white"/>
<path d="M58.1848 17.0422C61.353 20.4535 61.9548 24.3825 59.9903 28.829C59.2357 30.5378 57.7265 32.5272 55.4626 34.7973C53.7227 36.5373 51.9359 38.3209 50.1024 40.1482C49.9878 40.2645 49.8333 40.333 49.6701 40.34C49.5069 40.3469 49.3472 40.2917 49.2231 40.1856C46.5539 37.8843 43.9876 35.3898 41.5242 32.7019C38.9548 29.9079 37.8572 26.8334 38.2314 23.4782C38.5806 20.3225 39.9807 17.6877 42.4316 15.5735C44.8389 13.4968 47.6765 12.7016 50.9443 13.1881C53.7694 13.6059 56.1829 14.8906 58.1848 17.0422ZM51.0753 17.4257C49.2106 16.9393 47.5205 17.1763 46.0051 18.1367C44.078 19.3653 42.9368 21.1676 42.5813 23.5437C42.2071 26.0569 43.0989 28.3364 45.2567 30.3819C46.5726 31.6354 47.8293 32.917 49.0266 34.2267C49.0956 34.3033 49.1794 34.3652 49.2728 34.4087C49.3663 34.4522 49.4676 34.4764 49.5706 34.4799C49.6737 34.4834 49.7763 34.4661 49.8725 34.429C49.9687 34.3919 50.0565 34.3358 50.1305 34.2641C51.5212 32.942 52.8215 31.6385 54.0314 30.3538C57.4988 26.6868 57.8543 23.2412 55.0978 20.017C53.9628 18.6886 52.6219 17.8249 51.0753 17.4257Z" fill="#5AC561"/>
<path d="M135.23 19.0253C134.887 16.7054 136.277 15.4519 139.402 15.2648C139.545 15.2569 139.688 15.2831 139.819 15.3412C139.95 15.3993 140.066 15.4877 140.156 15.599C140.247 15.7104 140.309 15.8416 140.339 15.9819C140.369 16.1222 140.365 16.2675 140.328 16.406C139.642 18.9505 140.309 20.0543 142.33 19.7176C142.674 19.658 143.028 19.7375 143.316 19.9389C143.603 20.1403 143.8 20.4473 143.864 20.7934C144.375 23.5623 143.443 24.6974 141.067 24.1984C140.944 24.1719 140.817 24.1732 140.695 24.2023C140.572 24.2313 140.458 24.2874 140.36 24.3663C140.263 24.4453 140.184 24.5451 140.13 24.6585C140.075 24.7719 140.047 24.896 140.047 25.0217C140.047 26.718 140.047 28.2241 140.047 29.54C140.047 29.6397 140.01 30.1449 139.935 31.0554C139.792 32.8078 140.693 33.5967 142.639 33.4221C142.945 33.3953 143.25 33.4875 143.489 33.6795C143.728 33.8714 143.883 34.1481 143.92 34.4511C144.207 36.6464 143.692 37.7658 142.377 37.8095C142.065 37.8157 141.126 37.7221 139.561 37.5288C138.102 37.3417 137.01 36.6557 136.287 35.4708C135.831 34.7224 135.554 33.5718 135.454 32.0189C135.304 29.6927 135.304 27.2605 135.454 24.7223C135.458 24.6604 135.447 24.5983 135.423 24.5398C135.399 24.4812 135.362 24.4272 135.314 24.3811C135.266 24.335 135.208 24.2975 135.144 24.271C135.08 24.2445 135.01 24.2293 134.94 24.2265L132.966 24.1517C132.826 24.1466 132.693 24.0849 132.594 23.9789C132.495 23.8729 132.437 23.7307 132.433 23.581L132.339 20.3069C132.338 20.1969 132.39 20.0888 132.485 20.004C132.58 19.9191 132.712 19.8637 132.854 19.8485L134.855 19.6053C134.914 19.5973 134.97 19.576 135.02 19.5425C135.071 19.5091 135.115 19.4641 135.149 19.4103C135.184 19.3564 135.209 19.2947 135.223 19.2286C135.237 19.1626 135.239 19.0935 135.23 19.0253Z" fill="white"/>
<path d="M75.5471 36.6682L75.4535 44.0397C75.4516 44.1761 75.4021 44.3065 75.315 44.404C75.228 44.5014 75.1102 44.5585 74.9858 44.5635L71.7023 44.6477C71.6394 44.6502 71.5766 44.6395 71.5177 44.6162C71.4588 44.5929 71.4051 44.5575 71.3597 44.512C71.3142 44.4666 71.2781 44.4121 71.2534 44.3519C71.2287 44.2916 71.2159 44.2268 71.2159 44.1613V20.4286C71.2152 20.2916 71.2621 20.1584 71.3489 20.0512C71.4358 19.9439 71.5572 19.8691 71.6929 19.8392C72.7157 19.6085 73.7385 19.6396 74.7613 19.9328C74.8853 19.9685 75.0066 20.0375 75.1176 20.1356C75.2286 20.2338 75.327 20.3589 75.4067 20.5034C75.7996 21.2081 76.2674 21.2985 76.8099 20.7747C77.1904 20.4067 77.5022 20.1697 77.7454 20.0637C81.8989 18.3238 85.3008 19.2249 87.9513 22.7672C89.8721 25.3179 90.4958 27.9715 89.8222 30.728C89.1799 33.3411 87.7424 35.3648 85.5098 36.7992C82.6971 38.6015 79.5134 38.4861 75.9587 36.4531C75.9178 36.4281 75.8709 36.4139 75.823 36.4121C75.7751 36.4103 75.7278 36.4209 75.6859 36.4428C75.644 36.4647 75.6091 36.4971 75.5847 36.5367C75.5603 36.5763 75.5473 36.6217 75.5471 36.6682ZM85.4162 28.67C85.4162 27.365 84.8978 26.1134 83.975 25.1906C83.0522 24.2679 81.8007 23.7495 80.4957 23.7495C79.1907 23.7495 77.9391 24.2679 77.0163 25.1906C76.0935 26.1134 75.5751 27.365 75.5751 28.67C75.5751 29.975 76.0935 31.2266 77.0163 32.1493C77.9391 33.0721 79.1907 33.5905 80.4957 33.5905C81.8007 33.5905 83.0522 33.0721 83.975 32.1493C84.8978 31.2266 85.4162 29.975 85.4162 28.67Z" fill="white"/>
<path d="M109.879 28.6513C109.879 29.8847 109.636 31.106 109.164 32.2455C108.692 33.385 108 34.4203 107.128 35.2925C106.256 36.1646 105.22 36.8564 104.081 37.3284C102.941 37.8004 101.72 38.0433 100.487 38.0433C97.9956 38.0433 95.6067 37.0538 93.8453 35.2925C92.084 33.5311 91.0945 31.1422 91.0945 28.6513C91.0945 26.1604 92.084 23.7714 93.8453 22.0101C95.6067 20.2487 97.9956 19.2592 100.487 19.2592C102.977 19.2592 105.366 20.2487 107.128 22.0101C108.889 23.7714 109.879 26.1604 109.879 28.6513ZM105.248 28.6887C105.248 27.4209 104.744 26.205 103.848 25.3086C102.951 24.4121 101.736 23.9085 100.468 23.9085C99.2 23.9085 97.9842 24.4121 97.0877 25.3086C96.1912 26.205 95.6876 27.4209 95.6876 28.6887C95.6876 29.9565 96.1912 31.1724 97.0877 32.0688C97.9842 32.9653 99.2 33.4689 100.468 33.4689C101.736 33.4689 102.951 32.9653 103.848 32.0688C104.744 31.1724 105.248 29.9565 105.248 28.6887Z" fill="white"/>
<path d="M115.978 25.742C117.425 26.3282 118.89 26.8646 120.374 27.351C123.942 28.511 125.198 30.8216 124.144 34.2828C123.608 36.054 122.239 37.2233 120.038 37.7908C116.084 38.8136 113.034 37.9841 110.889 35.3025C110.708 35.0733 110.612 34.788 110.619 34.4959C110.626 34.2038 110.735 33.9233 110.926 33.7028C112.342 32.0751 113.533 31.7415 114.5 32.7019C115.891 34.0926 117.234 34.4637 118.532 33.8151C119.791 33.1852 120.041 32.4898 119.28 31.729C118.981 31.4296 118.479 31.1459 117.774 30.8777C116.707 30.4724 115.641 30.0701 114.575 29.671C113.252 29.1783 112.314 28.5827 111.759 27.8842C110.742 26.5995 110.449 25.1464 110.88 23.525C111.229 22.1966 112.064 21.1458 113.387 20.3725C116.542 18.5202 119.785 18.9412 123.115 21.6353C123.251 21.7461 123.361 21.8848 123.438 22.042C123.515 22.1991 123.557 22.3711 123.561 22.546C123.566 22.721 123.533 22.8948 123.464 23.0557C123.395 23.2166 123.292 23.3607 123.162 23.4782C121.771 24.7442 120.428 25.003 119.13 24.2546C118.132 23.6871 117.471 23.4002 117.147 23.394C116.124 23.3691 115.591 23.9428 115.547 25.1153C115.541 25.2458 115.58 25.3763 115.657 25.4887C115.734 25.601 115.846 25.6896 115.978 25.742Z" fill="white"/>
<path d="M185.82 22.5894C187.198 24.2982 187.924 26.4654 187.999 29.0909C188.006 29.2791 187.974 29.4666 187.906 29.6423C187.838 29.818 187.736 29.9782 187.605 30.1135C187.474 30.2488 187.317 30.3564 187.144 30.4298C186.971 30.5032 186.784 30.541 186.596 30.5409H175.492C174.22 30.5409 174.036 30.9868 174.94 31.8786C176.93 33.8306 179.131 34.342 181.545 33.4128C182.879 32.9014 183.752 32.6675 184.164 32.7112C185.062 32.8047 185.792 33.2724 186.353 34.1144C186.427 34.2306 186.465 34.3672 186.462 34.507C186.459 34.6467 186.414 34.7835 186.334 34.9002C185.318 36.372 183.902 37.3137 182.087 37.7253C179.967 38.2055 177.94 38.1462 176.007 37.5475C174.03 36.9363 172.452 35.82 171.273 34.1986C170.057 32.521 169.49 30.6251 169.571 28.5109C169.652 26.6275 170.257 24.847 171.385 23.1694C173.493 20.0138 176.446 18.7883 180.244 19.4931C182.664 19.9421 184.522 20.9742 185.82 22.5894ZM181.535 24.3388C178.629 22.7672 176.334 23.3596 174.65 26.1161C174.376 26.5652 174.494 26.7866 175.006 26.7803L182.443 26.6587C182.505 26.6579 182.566 26.644 182.622 26.6179C182.678 26.5918 182.728 26.5541 182.769 26.5073C182.81 26.4604 182.84 26.4056 182.858 26.3462C182.876 26.2869 182.881 26.2244 182.873 26.1629C182.748 25.3647 182.302 24.7566 181.535 24.3388Z" fill="white"/>
<path d="M149.814 19.6708H146.165C145.886 19.6708 145.66 19.897 145.66 20.176V37.0518C145.66 37.3308 145.886 37.5569 146.165 37.5569H149.814C150.093 37.5569 150.319 37.3308 150.319 37.0518V20.176C150.319 19.897 150.093 19.6708 149.814 19.6708Z" fill="white"/>
<path d="M160.787 31.0367C161.049 31.7601 161.307 31.7539 161.563 31.018L165.193 20.5221C165.249 20.3526 165.339 20.2041 165.451 20.0994C165.562 19.9947 165.688 19.9395 165.81 19.9421L169.533 19.9982C169.628 19.9989 169.72 20.0251 169.802 20.0745C169.884 20.124 169.953 20.1953 170.004 20.2825C170.054 20.3696 170.084 20.47 170.092 20.5752C170.1 20.6804 170.085 20.7873 170.048 20.8869L164.014 36.6776C163.931 36.8983 163.792 37.0889 163.615 37.2242C163.438 37.3595 163.232 37.4331 163.022 37.4353L158.925 37.454C158.796 37.456 158.667 37.4083 158.554 37.3177C158.442 37.227 158.352 37.0979 158.298 36.9488L152.021 20.466C151.985 20.3687 151.976 20.2642 151.994 20.1617C152.012 20.0592 152.057 19.962 152.125 19.8787C152.192 19.7953 152.28 19.7285 152.382 19.684C152.483 19.6396 152.594 19.619 152.704 19.624L156.222 19.7737C156.369 19.782 156.509 19.8291 156.624 19.909C156.739 19.9889 156.823 20.0981 156.867 20.2227L160.787 31.0367Z" fill="white"/>
<path d="M130.004 19.7801L126.655 19.786C126.288 19.7866 125.991 20.0845 125.992 20.4513L126.02 36.8968C126.021 37.2636 126.319 37.5604 126.686 37.5598L130.035 37.5539C130.401 37.5533 130.698 37.2554 130.698 36.8886L130.669 20.4432C130.668 20.0763 130.37 19.7795 130.004 19.7801Z" fill="white"/>
<path d="M39.9246 34.7786C42.3692 37.086 44.6923 39.4652 46.8938 41.9162C47.0722 42.1153 47.1684 42.3747 47.1632 42.642C47.158 42.9093 47.0517 43.1647 46.8657 43.3568C44.5208 45.7827 42.2726 48.0185 40.121 50.0641C38.2002 51.8851 36.4571 53.0451 34.8918 53.544C32.6965 54.2425 30.5107 54.2705 28.3342 53.6282C25.7523 52.8673 23.6724 51.3986 22.0946 49.2221C20.4357 46.9334 19.7622 44.2922 20.074 41.2987C20.4607 37.5818 22.4657 34.7848 26.089 32.9076C31.1904 30.2634 35.8023 30.887 39.9246 34.7786Z" fill="#5AC561"/>
<path d="M105.407 66.2289C105.402 66.2125 105.392 66.1977 105.38 66.1853C105.368 66.1729 105.353 66.1633 105.336 66.1571C105.319 66.151 105.301 66.1483 105.283 66.1494C105.264 66.1505 105.246 66.1552 105.229 66.1634C102.766 67.4855 100.54 68.0125 98.5502 67.7443C96.6543 67.4824 94.9174 66.3287 93.3396 64.2831C90.7765 60.9591 90.5738 57.4854 92.7316 53.862C94.0599 51.6294 95.697 50.1888 97.6428 49.5402C99.9378 48.7731 102.317 49.1878 104.78 50.7844C105.385 51.171 105.691 50.9964 105.697 50.2605L105.8 43.3474C105.802 43.2003 105.858 43.0601 105.954 42.9569C106.05 42.8536 106.18 42.7957 106.315 42.7955L109.645 42.7861C109.831 42.7861 110.009 42.867 110.141 43.0108C110.272 43.1547 110.346 43.3498 110.346 43.5532C110.346 50.7189 110.346 57.7879 110.346 64.7602C110.346 64.8226 110.381 65.2404 110.449 66.0137C110.537 67.0427 110.128 67.5728 109.224 67.604C108.656 67.6227 108.001 67.6321 107.259 67.6321C106.33 67.6321 105.713 67.1643 105.407 66.2289ZM105.744 58.5861C105.744 57.2762 105.224 56.0198 104.297 55.0935C103.371 54.1673 102.115 53.6469 100.805 53.6469C99.4947 53.6469 98.2383 54.1673 97.3121 55.0935C96.3858 56.0198 95.8654 57.2762 95.8654 58.5861C95.8654 59.8961 96.3858 61.1524 97.3121 62.0787C98.2383 63.005 99.4947 63.5254 100.805 63.5254C102.115 63.5254 103.371 63.005 104.297 62.0787C105.224 61.1524 105.744 59.8961 105.744 58.5861Z" fill="#5AC561"/>
<path d="M125.117 66.1728C123.714 67.6944 121.924 68.2152 119.748 67.735C114.21 66.5189 111.753 63.014 112.376 57.2204C112.844 52.8798 115.22 50.2761 119.505 49.4092C121.718 48.9664 123.614 49.3905 125.192 50.6815C125.891 51.2552 126.249 51.0775 126.268 50.1483L126.39 43.3474C126.392 43.2004 126.445 43.0602 126.538 42.957C126.631 42.8538 126.755 42.7958 126.885 42.7955L130.15 42.7768C130.356 42.7768 130.554 42.8665 130.699 43.0261C130.845 43.1858 130.927 43.4023 130.927 43.6281V65.8547C130.926 66.1422 130.742 66.4584 130.404 66.7544C130.066 67.0503 129.592 67.3095 129.056 67.4918C127.634 67.9782 126.561 67.5666 125.838 66.257C125.803 66.1954 125.754 66.143 125.695 66.1039C125.636 66.0648 125.569 66.0401 125.499 66.0319C125.429 66.0237 125.358 66.0322 125.291 66.0567C125.225 66.0811 125.165 66.1209 125.117 66.1728ZM126.38 58.5861C126.38 57.2836 125.863 56.0344 124.942 55.1134C124.021 54.1924 122.772 53.675 121.469 53.675C120.166 53.675 118.917 54.1924 117.996 55.1134C117.075 56.0344 116.558 57.2836 116.558 58.5861C116.558 59.8887 117.075 61.1379 117.996 62.0589C118.917 62.9799 120.166 63.4973 121.469 63.4973C122.772 63.4973 124.021 62.9799 124.942 62.0589C125.863 61.1379 126.38 59.8887 126.38 58.5861Z" fill="#5AC561"/>
<path d="M53.6385 48.6328C56.4885 51.0775 58.4935 53.2914 59.6535 55.2746C61.3311 58.1309 61.6835 61.0371 60.7106 63.9932C59.825 66.6748 58.1817 68.8264 55.7807 70.4479C53.1739 72.2003 50.302 72.7023 47.1651 71.954C44.3212 71.2804 42.0512 69.8086 40.3549 67.5386C38.3156 64.8132 37.7262 61.7044 38.5869 58.212C39.0483 56.3348 40.2177 54.361 42.0948 52.2905C44.3836 49.7585 46.769 47.3138 49.2511 44.9564C49.3446 44.8667 49.4678 44.815 49.5961 44.8115C49.7244 44.8081 49.8484 44.8531 49.9434 44.9377C50.592 45.5302 51.2094 46.1507 51.7956 46.7993C52.438 47.5103 53.0523 48.1214 53.6385 48.6328ZM49.2605 51.1305C47.9072 52.3341 46.6256 53.6064 45.4157 54.9472C41.5803 59.1755 41.3777 62.8644 44.8077 66.0138C46.3169 67.3982 47.9664 68.1154 49.7563 68.1653C51.9328 68.2277 53.7133 67.3608 55.0978 65.5647C57.9167 61.9039 57.5986 58.3617 54.1436 54.9379C52.8028 53.6095 51.409 52.3404 49.9621 51.1305C49.8601 51.0467 49.7332 51.0005 49.6045 51.0005C49.4758 51.0005 49.3537 51.0467 49.2605 51.1305Z" fill="white"/>
<path d="M89.7568 58.5768C89.7568 61.0653 88.7682 63.4518 87.0086 65.2114C85.249 66.971 82.8625 67.9595 80.3741 67.9595C77.8856 67.9595 75.4991 66.971 73.7395 65.2114C71.9799 63.4518 70.9913 61.0653 70.9913 58.5768C70.9913 56.0884 71.9799 53.7018 73.7395 51.9422C75.4991 50.1826 77.8856 49.1941 80.3741 49.1941C82.8625 49.1941 85.249 50.1826 87.0086 51.9422C88.7682 53.7018 89.7568 56.0884 89.7568 58.5768ZM85.1917 58.5768C85.1917 57.2991 84.6841 56.0737 83.7806 55.1702C82.8772 54.2667 81.6518 53.7592 80.3741 53.7592C79.0963 53.7592 77.871 54.2667 76.9675 55.1702C76.064 56.0737 75.5564 57.2991 75.5564 58.5768C75.5564 59.8545 76.064 61.0799 76.9675 61.9834C77.871 62.8869 79.0963 63.3944 80.3741 63.3944C81.6518 63.3944 82.8772 62.8869 83.7806 61.9834C84.6841 61.0799 85.1917 59.8545 85.1917 58.5768Z" fill="#5AC561"/>
<path d="M142.143 62.9922C142.266 62.8263 142.346 62.6329 142.378 62.4288C142.409 62.2248 142.39 62.0161 142.323 61.8209C142.256 61.6257 142.142 61.4497 141.992 61.3083C141.841 61.1668 141.659 61.0641 141.46 61.009C139.926 60.5787 138.466 60.0798 137.082 59.5123C135.672 58.9323 134.703 58.2525 134.173 57.473C133.437 56.4003 133.212 55.1405 133.499 53.6937C133.917 51.5733 135.214 50.1982 137.391 49.5683C141.051 48.5143 144.023 49.3781 146.306 52.1595C146.394 52.2647 146.445 52.3963 146.45 52.5336C146.455 52.6708 146.414 52.8058 146.334 52.9172C144.93 54.9191 143.206 55.1187 141.161 53.5159C139.944 52.568 139.046 52.7239 138.466 53.9837C137.943 55.1249 138.339 55.8453 139.654 56.1446C140.977 56.4502 142.246 56.8743 143.462 57.4168C144.809 58.0155 145.797 58.8543 146.427 59.9332C147.568 61.9039 147.506 63.6844 146.24 65.2747C145.024 66.8027 143.303 67.6882 141.076 67.9315C138.794 68.1872 136.605 67.6228 134.509 66.2383C132.557 64.9473 132.729 63.6283 135.024 62.2812C135.31 62.112 135.64 62.0299 135.972 62.0448C136.304 62.0598 136.625 62.1712 136.895 62.3654C139.396 64.1553 141.145 64.3642 142.143 62.9922Z" fill="#5AC561"/>
</svg>
